G04 #@! TF.FileFunction,Legend,Top*
%FSLAX46Y46*%
G04 Gerber Fmt 4.6, Leading zero omitted, Abs format (unit mm)*
G04 Created by KiCad (PCBNEW 4.0.5+dfsg1-4) date Sat Mar 17 17:37:26 2018*
%MOMM*%
%LPD*%
G01*
G04 APERTURE LIST*
%ADD10C,0.100000*%
%ADD11C,0.150000*%
%ADD12C,0.120000*%
G04 APERTURE END LIST*
D10*
D11*
X139114880Y-91222760D02*
X139089880Y-91222760D01*
X139114880Y-95372760D02*
X138999880Y-95372760D01*
X130214880Y-95372760D02*
X130329880Y-95372760D01*
X130214880Y-91222760D02*
X130329880Y-91222760D01*
X139114880Y-91222760D02*
X139114880Y-95372760D01*
X130214880Y-91222760D02*
X130214880Y-95372760D01*
X139089880Y-91222760D02*
X139089880Y-89847760D01*
X126994880Y-94567760D02*
X114294880Y-94567760D01*
X114294880Y-94567760D02*
X114294880Y-92027760D01*
X114294880Y-92027760D02*
X126994880Y-92027760D01*
X129814880Y-94847760D02*
X128264880Y-94847760D01*
X126994880Y-94567760D02*
X126994880Y-92027760D01*
X128264880Y-91747760D02*
X129814880Y-91747760D01*
X129814880Y-91747760D02*
X129814880Y-94847760D01*
D12*
X132804880Y-74117760D02*
X132804880Y-75047760D01*
X132804880Y-77277760D02*
X132804880Y-76347760D01*
X132804880Y-77277760D02*
X135964880Y-77277760D01*
X132804880Y-74117760D02*
X134264880Y-74117760D01*
D11*
X113050880Y-77097760D02*
G75*
G03X113050880Y-77097760I-2286000J0D01*
G01*
X150650880Y-77097760D02*
G75*
G03X150650880Y-77097760I-2286000J0D01*
G01*
X113050880Y-98497760D02*
G75*
G03X113050880Y-98497760I-2286000J0D01*
G01*
X150650880Y-98497760D02*
G75*
G03X150650880Y-98497760I-2286000J0D01*
G01*
X119114880Y-100097760D02*
X119114880Y-99097760D01*
X117414880Y-99097760D02*
X117414880Y-100097760D01*
X125564880Y-100547760D02*
X126564880Y-100547760D01*
X126564880Y-98847760D02*
X125564880Y-98847760D01*
X125464880Y-95572760D02*
X123464880Y-95572760D01*
X123464880Y-97622760D02*
X125464880Y-97622760D01*
X140914880Y-97697760D02*
X140914880Y-96697760D01*
X139214880Y-96697760D02*
X139214880Y-97697760D01*
X142964880Y-91647760D02*
X143964880Y-91647760D01*
X143964880Y-89947760D02*
X142964880Y-89947760D01*
X130414880Y-99197760D02*
X130414880Y-100197760D01*
X132114880Y-100197760D02*
X132114880Y-99197760D01*
X130114880Y-100197760D02*
X130114880Y-99197760D01*
X128414880Y-99197760D02*
X128414880Y-100197760D01*
X117164880Y-95547760D02*
X116164880Y-95547760D01*
X116164880Y-97247760D02*
X117164880Y-97247760D01*
X138964880Y-75647760D02*
X137964880Y-75647760D01*
X137964880Y-77347760D02*
X138964880Y-77347760D01*
X128364880Y-76947760D02*
X129364880Y-76947760D01*
X129364880Y-75247760D02*
X128364880Y-75247760D01*
D12*
X120864880Y-101207760D02*
X122664880Y-101207760D01*
X122664880Y-97987760D02*
X120214880Y-97987760D01*
D11*
X117022023Y-99764426D02*
X117069642Y-99812045D01*
X117117261Y-99954902D01*
X117117261Y-100050140D01*
X117069642Y-100192998D01*
X116974404Y-100288236D01*
X116879166Y-100335855D01*
X116688690Y-100383474D01*
X116545832Y-100383474D01*
X116355356Y-100335855D01*
X116260118Y-100288236D01*
X116164880Y-100192998D01*
X116117261Y-100050140D01*
X116117261Y-99954902D01*
X116164880Y-99812045D01*
X116212499Y-99764426D01*
X116117261Y-98859664D02*
X116117261Y-99335855D01*
X116593451Y-99383474D01*
X116545832Y-99335855D01*
X116498213Y-99240617D01*
X116498213Y-99002521D01*
X116545832Y-98907283D01*
X116593451Y-98859664D01*
X116688690Y-98812045D01*
X116926785Y-98812045D01*
X117022023Y-98859664D01*
X117069642Y-98907283D01*
X117117261Y-99002521D01*
X117117261Y-99240617D01*
X117069642Y-99335855D01*
X117022023Y-99383474D01*
X125898214Y-101554903D02*
X125850595Y-101602522D01*
X125707738Y-101650141D01*
X125612500Y-101650141D01*
X125469642Y-101602522D01*
X125374404Y-101507284D01*
X125326785Y-101412046D01*
X125279166Y-101221570D01*
X125279166Y-101078712D01*
X125326785Y-100888236D01*
X125374404Y-100792998D01*
X125469642Y-100697760D01*
X125612500Y-100650141D01*
X125707738Y-100650141D01*
X125850595Y-100697760D01*
X125898214Y-100745379D01*
X126850595Y-101650141D02*
X126279166Y-101650141D01*
X126564880Y-101650141D02*
X126564880Y-100650141D01*
X126469642Y-100792998D01*
X126374404Y-100888236D01*
X126279166Y-100935855D01*
X127498214Y-96454903D02*
X127450595Y-96502522D01*
X127307738Y-96550141D01*
X127212500Y-96550141D01*
X127069642Y-96502522D01*
X126974404Y-96407284D01*
X126926785Y-96312046D01*
X126879166Y-96121570D01*
X126879166Y-95978712D01*
X126926785Y-95788236D01*
X126974404Y-95692998D01*
X127069642Y-95597760D01*
X127212500Y-95550141D01*
X127307738Y-95550141D01*
X127450595Y-95597760D01*
X127498214Y-95645379D01*
X127879166Y-95645379D02*
X127926785Y-95597760D01*
X128022023Y-95550141D01*
X128260119Y-95550141D01*
X128355357Y-95597760D01*
X128402976Y-95645379D01*
X128450595Y-95740617D01*
X128450595Y-95835855D01*
X128402976Y-95978712D01*
X127831547Y-96550141D01*
X128450595Y-96550141D01*
X142122023Y-97364426D02*
X142169642Y-97412045D01*
X142217261Y-97554902D01*
X142217261Y-97650140D01*
X142169642Y-97792998D01*
X142074404Y-97888236D01*
X141979166Y-97935855D01*
X141788690Y-97983474D01*
X141645832Y-97983474D01*
X141455356Y-97935855D01*
X141360118Y-97888236D01*
X141264880Y-97792998D01*
X141217261Y-97650140D01*
X141217261Y-97554902D01*
X141264880Y-97412045D01*
X141312499Y-97364426D01*
X141217261Y-97031093D02*
X141217261Y-96412045D01*
X141598213Y-96745379D01*
X141598213Y-96602521D01*
X141645832Y-96507283D01*
X141693451Y-96459664D01*
X141788690Y-96412045D01*
X142026785Y-96412045D01*
X142122023Y-96459664D01*
X142169642Y-96507283D01*
X142217261Y-96602521D01*
X142217261Y-96888236D01*
X142169642Y-96983474D01*
X142122023Y-97031093D01*
X143298214Y-92754903D02*
X143250595Y-92802522D01*
X143107738Y-92850141D01*
X143012500Y-92850141D01*
X142869642Y-92802522D01*
X142774404Y-92707284D01*
X142726785Y-92612046D01*
X142679166Y-92421570D01*
X142679166Y-92278712D01*
X142726785Y-92088236D01*
X142774404Y-91992998D01*
X142869642Y-91897760D01*
X143012500Y-91850141D01*
X143107738Y-91850141D01*
X143250595Y-91897760D01*
X143298214Y-91945379D01*
X144155357Y-92183474D02*
X144155357Y-92850141D01*
X143917261Y-91802522D02*
X143679166Y-92516808D01*
X144298214Y-92516808D01*
X133317261Y-99864426D02*
X132841070Y-100197760D01*
X133317261Y-100435855D02*
X132317261Y-100435855D01*
X132317261Y-100054902D01*
X132364880Y-99959664D01*
X132412499Y-99912045D01*
X132507737Y-99864426D01*
X132650594Y-99864426D01*
X132745832Y-99912045D01*
X132793451Y-99959664D01*
X132841070Y-100054902D01*
X132841070Y-100435855D01*
X133317261Y-98912045D02*
X133317261Y-99483474D01*
X133317261Y-99197760D02*
X132317261Y-99197760D01*
X132460118Y-99292998D01*
X132555356Y-99388236D01*
X132602975Y-99483474D01*
X128998214Y-97850141D02*
X128664880Y-97373950D01*
X128426785Y-97850141D02*
X128426785Y-96850141D01*
X128807738Y-96850141D01*
X128902976Y-96897760D01*
X128950595Y-96945379D01*
X128998214Y-97040617D01*
X128998214Y-97183474D01*
X128950595Y-97278712D01*
X128902976Y-97326331D01*
X128807738Y-97373950D01*
X128426785Y-97373950D01*
X129379166Y-96945379D02*
X129426785Y-96897760D01*
X129522023Y-96850141D01*
X129760119Y-96850141D01*
X129855357Y-96897760D01*
X129902976Y-96945379D01*
X129950595Y-97040617D01*
X129950595Y-97135855D01*
X129902976Y-97278712D01*
X129331547Y-97850141D01*
X129950595Y-97850141D01*
X115198214Y-98350141D02*
X114864880Y-97873950D01*
X114626785Y-98350141D02*
X114626785Y-97350141D01*
X115007738Y-97350141D01*
X115102976Y-97397760D01*
X115150595Y-97445379D01*
X115198214Y-97540617D01*
X115198214Y-97683474D01*
X115150595Y-97778712D01*
X115102976Y-97826331D01*
X115007738Y-97873950D01*
X114626785Y-97873950D01*
X115531547Y-97350141D02*
X116150595Y-97350141D01*
X115817261Y-97731093D01*
X115960119Y-97731093D01*
X116055357Y-97778712D01*
X116102976Y-97826331D01*
X116150595Y-97921570D01*
X116150595Y-98159665D01*
X116102976Y-98254903D01*
X116055357Y-98302522D01*
X115960119Y-98350141D01*
X115674404Y-98350141D01*
X115579166Y-98302522D01*
X115531547Y-98254903D01*
X138283894Y-75300301D02*
X137950560Y-74824110D01*
X137712465Y-75300301D02*
X137712465Y-74300301D01*
X138093418Y-74300301D01*
X138188656Y-74347920D01*
X138236275Y-74395539D01*
X138283894Y-74490777D01*
X138283894Y-74633634D01*
X138236275Y-74728872D01*
X138188656Y-74776491D01*
X138093418Y-74824110D01*
X137712465Y-74824110D01*
X139141037Y-74633634D02*
X139141037Y-75300301D01*
X138902941Y-74252682D02*
X138664846Y-74966968D01*
X139283894Y-74966968D01*
X128698214Y-74950141D02*
X128364880Y-74473950D01*
X128126785Y-74950141D02*
X128126785Y-73950141D01*
X128507738Y-73950141D01*
X128602976Y-73997760D01*
X128650595Y-74045379D01*
X128698214Y-74140617D01*
X128698214Y-74283474D01*
X128650595Y-74378712D01*
X128602976Y-74426331D01*
X128507738Y-74473950D01*
X128126785Y-74473950D01*
X129602976Y-73950141D02*
X129126785Y-73950141D01*
X129079166Y-74426331D01*
X129126785Y-74378712D01*
X129222023Y-74331093D01*
X129460119Y-74331093D01*
X129555357Y-74378712D01*
X129602976Y-74426331D01*
X129650595Y-74521570D01*
X129650595Y-74759665D01*
X129602976Y-74854903D01*
X129555357Y-74902522D01*
X129460119Y-74950141D01*
X129222023Y-74950141D01*
X129126785Y-74902522D01*
X129079166Y-74854903D01*
X119802975Y-96650141D02*
X119802975Y-97459665D01*
X119850594Y-97554903D01*
X119898213Y-97602522D01*
X119993451Y-97650141D01*
X120183928Y-97650141D01*
X120279166Y-97602522D01*
X120326785Y-97554903D01*
X120374404Y-97459665D01*
X120374404Y-96650141D01*
X121374404Y-97650141D02*
X120802975Y-97650141D01*
X121088689Y-97650141D02*
X121088689Y-96650141D01*
X120993451Y-96792998D01*
X120898213Y-96888236D01*
X120802975Y-96935855D01*
M02*
