G04 #@! TF.FileFunction,Copper,L2,Bot,Signal*
%FSLAX46Y46*%
G04 Gerber Fmt 4.6, Leading zero omitted, Abs format (unit mm)*
G04 Created by KiCad (PCBNEW 4.0.5+dfsg1-4) date Sat Mar 17 17:37:26 2018*
%MOMM*%
%LPD*%
G01*
G04 APERTURE LIST*
%ADD10C,0.100000*%
%ADD11R,1.727200X2.032000*%
%ADD12O,1.727200X2.032000*%
%ADD13O,1.600000X1.600000*%
%ADD14C,5.000000*%
%ADD15C,0.600000*%
%ADD16C,0.508000*%
%ADD17C,0.254000*%
G04 APERTURE END LIST*
D10*
D11*
X128264880Y-93297760D03*
D12*
X125724880Y-93297760D03*
X123184880Y-93297760D03*
X120644880Y-93297760D03*
X118104880Y-93297760D03*
X115564880Y-93297760D03*
D13*
X142240000Y-88646000D03*
X139700000Y-88646000D03*
X137160000Y-88646000D03*
X134620000Y-88646000D03*
X132080000Y-88646000D03*
X129540000Y-88646000D03*
X127000000Y-88646000D03*
X124460000Y-88646000D03*
X121920000Y-88646000D03*
X119380000Y-88646000D03*
X116840000Y-88646000D03*
X116840000Y-78486000D03*
X119380000Y-78486000D03*
X121920000Y-78486000D03*
X124460000Y-78486000D03*
X127000000Y-78486000D03*
X129540000Y-78486000D03*
X132080000Y-78486000D03*
X134620000Y-78486000D03*
X137160000Y-78486000D03*
X139700000Y-78486000D03*
X142240000Y-78486000D03*
D14*
X110764880Y-77097760D03*
X148364880Y-77097760D03*
X110764880Y-98497760D03*
X148364880Y-98497760D03*
D15*
X140064880Y-99097760D03*
X119264880Y-99597760D03*
X125064880Y-97097760D03*
X132364880Y-98697760D03*
X145364880Y-90997760D03*
X120664880Y-97197760D03*
D16*
X120644880Y-97177760D02*
X120664880Y-97197760D01*
X120644880Y-97177760D02*
X120644880Y-94097760D01*
D17*
G36*
X145708706Y-75319607D02*
X145230426Y-76471434D01*
X145229337Y-77718614D01*
X145705607Y-78871275D01*
X146586727Y-79753934D01*
X147738554Y-80232214D01*
X148985734Y-80233303D01*
X150138395Y-79757033D01*
X150854880Y-79041797D01*
X150854880Y-96554676D01*
X150143033Y-95841586D01*
X148991206Y-95363306D01*
X147744026Y-95362217D01*
X146591365Y-95838487D01*
X145708706Y-96719607D01*
X145230426Y-97871434D01*
X145229337Y-99118614D01*
X145705607Y-100271275D01*
X146321017Y-100887760D01*
X112808138Y-100887760D01*
X113421054Y-100275913D01*
X113899334Y-99124086D01*
X113900423Y-97876906D01*
X113424153Y-96724245D01*
X112543033Y-95841586D01*
X111391206Y-95363306D01*
X110144026Y-95362217D01*
X108991365Y-95838487D01*
X108374880Y-96453897D01*
X108374880Y-93113015D01*
X114066280Y-93113015D01*
X114066280Y-93482505D01*
X114180354Y-94055994D01*
X114505210Y-94542175D01*
X114991391Y-94867031D01*
X115564880Y-94981105D01*
X116138369Y-94867031D01*
X116624550Y-94542175D01*
X116831341Y-94232691D01*
X117202844Y-94648492D01*
X117730089Y-94902469D01*
X117745854Y-94905118D01*
X117977880Y-94783977D01*
X117977880Y-93424760D01*
X117957880Y-93424760D01*
X117957880Y-93170760D01*
X117977880Y-93170760D01*
X117977880Y-91811543D01*
X118231880Y-91811543D01*
X118231880Y-93170760D01*
X118251880Y-93170760D01*
X118251880Y-93424760D01*
X118231880Y-93424760D01*
X118231880Y-94783977D01*
X118463906Y-94905118D01*
X118479671Y-94902469D01*
X119006916Y-94648492D01*
X119378419Y-94232691D01*
X119585210Y-94542175D01*
X119755880Y-94656213D01*
X119755880Y-96948736D01*
X119730042Y-97010961D01*
X119729718Y-97382927D01*
X119871763Y-97726703D01*
X120134553Y-97989952D01*
X120478081Y-98132598D01*
X120850047Y-98132922D01*
X121193823Y-97990877D01*
X121457072Y-97728087D01*
X121599718Y-97384559D01*
X121600042Y-97012593D01*
X121533880Y-96852468D01*
X121533880Y-94656213D01*
X121704550Y-94542175D01*
X121914880Y-94227394D01*
X122125210Y-94542175D01*
X122611391Y-94867031D01*
X123184880Y-94981105D01*
X123758369Y-94867031D01*
X124244550Y-94542175D01*
X124454880Y-94227394D01*
X124665210Y-94542175D01*
X125151391Y-94867031D01*
X125724880Y-94981105D01*
X126298369Y-94867031D01*
X126784550Y-94542175D01*
X126794123Y-94527847D01*
X126798118Y-94549077D01*
X126937190Y-94765201D01*
X127149390Y-94910191D01*
X127401280Y-94961200D01*
X129128480Y-94961200D01*
X129363797Y-94916922D01*
X129579921Y-94777850D01*
X129724911Y-94565650D01*
X129775920Y-94313760D01*
X129775920Y-92281760D01*
X129731642Y-92046443D01*
X129592570Y-91830319D01*
X129380370Y-91685329D01*
X129128480Y-91634320D01*
X127401280Y-91634320D01*
X127165963Y-91678598D01*
X126949839Y-91817670D01*
X126804849Y-92029870D01*
X126796480Y-92071199D01*
X126784550Y-92053345D01*
X126298369Y-91728489D01*
X125724880Y-91614415D01*
X125151391Y-91728489D01*
X124665210Y-92053345D01*
X124454880Y-92368126D01*
X124244550Y-92053345D01*
X123758369Y-91728489D01*
X123184880Y-91614415D01*
X122611391Y-91728489D01*
X122125210Y-92053345D01*
X121914880Y-92368126D01*
X121704550Y-92053345D01*
X121218369Y-91728489D01*
X120644880Y-91614415D01*
X120071391Y-91728489D01*
X119585210Y-92053345D01*
X119378419Y-92362829D01*
X119006916Y-91947028D01*
X118479671Y-91693051D01*
X118463906Y-91690402D01*
X118231880Y-91811543D01*
X117977880Y-91811543D01*
X117745854Y-91690402D01*
X117730089Y-91693051D01*
X117202844Y-91947028D01*
X116831341Y-92362829D01*
X116624550Y-92053345D01*
X116138369Y-91728489D01*
X115564880Y-91614415D01*
X114991391Y-91728489D01*
X114505210Y-92053345D01*
X114180354Y-92539526D01*
X114066280Y-93113015D01*
X108374880Y-93113015D01*
X108374880Y-88995041D01*
X115448086Y-88995041D01*
X115687611Y-89501134D01*
X116102577Y-89877041D01*
X116490961Y-90037904D01*
X116713000Y-89915915D01*
X116713000Y-88773000D01*
X116967000Y-88773000D01*
X116967000Y-89915915D01*
X117189039Y-90037904D01*
X117577423Y-89877041D01*
X117992389Y-89501134D01*
X118110000Y-89252633D01*
X118227611Y-89501134D01*
X118642577Y-89877041D01*
X119030961Y-90037904D01*
X119253000Y-89915915D01*
X119253000Y-88773000D01*
X119507000Y-88773000D01*
X119507000Y-89915915D01*
X119729039Y-90037904D01*
X120117423Y-89877041D01*
X120532389Y-89501134D01*
X120650000Y-89252633D01*
X120767611Y-89501134D01*
X121182577Y-89877041D01*
X121570961Y-90037904D01*
X121793000Y-89915915D01*
X121793000Y-88773000D01*
X122047000Y-88773000D01*
X122047000Y-89915915D01*
X122269039Y-90037904D01*
X122657423Y-89877041D01*
X123072389Y-89501134D01*
X123190000Y-89252633D01*
X123307611Y-89501134D01*
X123722577Y-89877041D01*
X124110961Y-90037904D01*
X124333000Y-89915915D01*
X124333000Y-88773000D01*
X124587000Y-88773000D01*
X124587000Y-89915915D01*
X124809039Y-90037904D01*
X125197423Y-89877041D01*
X125612389Y-89501134D01*
X125730000Y-89252633D01*
X125847611Y-89501134D01*
X126262577Y-89877041D01*
X126650961Y-90037904D01*
X126873000Y-89915915D01*
X126873000Y-88773000D01*
X127127000Y-88773000D01*
X127127000Y-89915915D01*
X127349039Y-90037904D01*
X127737423Y-89877041D01*
X128152389Y-89501134D01*
X128270000Y-89252633D01*
X128387611Y-89501134D01*
X128802577Y-89877041D01*
X129190961Y-90037904D01*
X129413000Y-89915915D01*
X129413000Y-88773000D01*
X127127000Y-88773000D01*
X126873000Y-88773000D01*
X124587000Y-88773000D01*
X124333000Y-88773000D01*
X122047000Y-88773000D01*
X121793000Y-88773000D01*
X119507000Y-88773000D01*
X119253000Y-88773000D01*
X116967000Y-88773000D01*
X116713000Y-88773000D01*
X115569371Y-88773000D01*
X115448086Y-88995041D01*
X108374880Y-88995041D01*
X108374880Y-79141018D01*
X108986727Y-79753934D01*
X110138554Y-80232214D01*
X111385734Y-80233303D01*
X112197809Y-79897760D01*
X114054880Y-79897760D01*
X114054880Y-87297760D01*
X114108926Y-87569465D01*
X114262834Y-87799806D01*
X114493175Y-87953714D01*
X114764880Y-88007760D01*
X115584959Y-88007760D01*
X115448086Y-88296959D01*
X115569371Y-88519000D01*
X116713000Y-88519000D01*
X116713000Y-88499000D01*
X116967000Y-88499000D01*
X116967000Y-88519000D01*
X119253000Y-88519000D01*
X119253000Y-88499000D01*
X119507000Y-88499000D01*
X119507000Y-88519000D01*
X121793000Y-88519000D01*
X121793000Y-88499000D01*
X122047000Y-88499000D01*
X122047000Y-88519000D01*
X124333000Y-88519000D01*
X124333000Y-88499000D01*
X124587000Y-88499000D01*
X124587000Y-88519000D01*
X126873000Y-88519000D01*
X126873000Y-88499000D01*
X127127000Y-88499000D01*
X127127000Y-88519000D01*
X129413000Y-88519000D01*
X129413000Y-88499000D01*
X129667000Y-88499000D01*
X129667000Y-88519000D01*
X129687000Y-88519000D01*
X129687000Y-88773000D01*
X129667000Y-88773000D01*
X129667000Y-89915915D01*
X129889039Y-90037904D01*
X130277423Y-89877041D01*
X130692389Y-89501134D01*
X130795014Y-89284297D01*
X131065302Y-89688811D01*
X131530849Y-89999880D01*
X132080000Y-90109113D01*
X132629151Y-89999880D01*
X133094698Y-89688811D01*
X133350000Y-89306725D01*
X133605302Y-89688811D01*
X134070849Y-89999880D01*
X134620000Y-90109113D01*
X135169151Y-89999880D01*
X135634698Y-89688811D01*
X135890000Y-89306725D01*
X136145302Y-89688811D01*
X136610849Y-89999880D01*
X137160000Y-90109113D01*
X137709151Y-89999880D01*
X138174698Y-89688811D01*
X138430000Y-89306725D01*
X138685302Y-89688811D01*
X139150849Y-89999880D01*
X139700000Y-90109113D01*
X140249151Y-89999880D01*
X140714698Y-89688811D01*
X140970000Y-89306725D01*
X141225302Y-89688811D01*
X141690849Y-89999880D01*
X142240000Y-90109113D01*
X142789151Y-89999880D01*
X143254698Y-89688811D01*
X143565767Y-89223264D01*
X143675000Y-88674113D01*
X143675000Y-88617887D01*
X143565767Y-88068736D01*
X143525024Y-88007760D01*
X144264880Y-88007760D01*
X144536585Y-87953714D01*
X144766926Y-87799806D01*
X144920834Y-87569465D01*
X144974880Y-87297760D01*
X144974880Y-79897760D01*
X144920834Y-79626055D01*
X144766926Y-79395714D01*
X144536585Y-79241806D01*
X144264880Y-79187760D01*
X143464978Y-79187760D01*
X143631914Y-78835041D01*
X143510629Y-78613000D01*
X142367000Y-78613000D01*
X142367000Y-78633000D01*
X142113000Y-78633000D01*
X142113000Y-78613000D01*
X142093000Y-78613000D01*
X142093000Y-78359000D01*
X142113000Y-78359000D01*
X142113000Y-77216085D01*
X142367000Y-77216085D01*
X142367000Y-78359000D01*
X143510629Y-78359000D01*
X143631914Y-78136959D01*
X143392389Y-77630866D01*
X142977423Y-77254959D01*
X142589039Y-77094096D01*
X142367000Y-77216085D01*
X142113000Y-77216085D01*
X141890961Y-77094096D01*
X141502577Y-77254959D01*
X141087611Y-77630866D01*
X140984986Y-77847703D01*
X140714698Y-77443189D01*
X140249151Y-77132120D01*
X139700000Y-77022887D01*
X139150849Y-77132120D01*
X138685302Y-77443189D01*
X138415014Y-77847703D01*
X138312389Y-77630866D01*
X137897423Y-77254959D01*
X137509039Y-77094096D01*
X137287000Y-77216085D01*
X137287000Y-78359000D01*
X137307000Y-78359000D01*
X137307000Y-78613000D01*
X137287000Y-78613000D01*
X137287000Y-78633000D01*
X137033000Y-78633000D01*
X137033000Y-78613000D01*
X134747000Y-78613000D01*
X134747000Y-78633000D01*
X134493000Y-78633000D01*
X134493000Y-78613000D01*
X132207000Y-78613000D01*
X132207000Y-78633000D01*
X131953000Y-78633000D01*
X131953000Y-78613000D01*
X129667000Y-78613000D01*
X129667000Y-78633000D01*
X129413000Y-78633000D01*
X129413000Y-78613000D01*
X127127000Y-78613000D01*
X127127000Y-78633000D01*
X126873000Y-78633000D01*
X126873000Y-78613000D01*
X124587000Y-78613000D01*
X124587000Y-78633000D01*
X124333000Y-78633000D01*
X124333000Y-78613000D01*
X122047000Y-78613000D01*
X122047000Y-78633000D01*
X121793000Y-78633000D01*
X121793000Y-78613000D01*
X119507000Y-78613000D01*
X119507000Y-78633000D01*
X119253000Y-78633000D01*
X119253000Y-78613000D01*
X116967000Y-78613000D01*
X116967000Y-78633000D01*
X116713000Y-78633000D01*
X116713000Y-78613000D01*
X115569371Y-78613000D01*
X115448086Y-78835041D01*
X115615022Y-79187760D01*
X114764880Y-79187760D01*
X114493175Y-79241806D01*
X114262834Y-79395714D01*
X114108926Y-79626055D01*
X114054880Y-79897760D01*
X112197809Y-79897760D01*
X112538395Y-79757033D01*
X113421054Y-78875913D01*
X113727894Y-78136959D01*
X115448086Y-78136959D01*
X115569371Y-78359000D01*
X116713000Y-78359000D01*
X116713000Y-77216085D01*
X116967000Y-77216085D01*
X116967000Y-78359000D01*
X119253000Y-78359000D01*
X119253000Y-77216085D01*
X119507000Y-77216085D01*
X119507000Y-78359000D01*
X121793000Y-78359000D01*
X121793000Y-77216085D01*
X122047000Y-77216085D01*
X122047000Y-78359000D01*
X124333000Y-78359000D01*
X124333000Y-77216085D01*
X124587000Y-77216085D01*
X124587000Y-78359000D01*
X126873000Y-78359000D01*
X126873000Y-77216085D01*
X127127000Y-77216085D01*
X127127000Y-78359000D01*
X129413000Y-78359000D01*
X129413000Y-77216085D01*
X129667000Y-77216085D01*
X129667000Y-78359000D01*
X131953000Y-78359000D01*
X131953000Y-77216085D01*
X132207000Y-77216085D01*
X132207000Y-78359000D01*
X134493000Y-78359000D01*
X134493000Y-77216085D01*
X134747000Y-77216085D01*
X134747000Y-78359000D01*
X137033000Y-78359000D01*
X137033000Y-77216085D01*
X136810961Y-77094096D01*
X136422577Y-77254959D01*
X136007611Y-77630866D01*
X135890000Y-77879367D01*
X135772389Y-77630866D01*
X135357423Y-77254959D01*
X134969039Y-77094096D01*
X134747000Y-77216085D01*
X134493000Y-77216085D01*
X134270961Y-77094096D01*
X133882577Y-77254959D01*
X133467611Y-77630866D01*
X133350000Y-77879367D01*
X133232389Y-77630866D01*
X132817423Y-77254959D01*
X132429039Y-77094096D01*
X132207000Y-77216085D01*
X131953000Y-77216085D01*
X131730961Y-77094096D01*
X131342577Y-77254959D01*
X130927611Y-77630866D01*
X130810000Y-77879367D01*
X130692389Y-77630866D01*
X130277423Y-77254959D01*
X129889039Y-77094096D01*
X129667000Y-77216085D01*
X129413000Y-77216085D01*
X129190961Y-77094096D01*
X128802577Y-77254959D01*
X128387611Y-77630866D01*
X128270000Y-77879367D01*
X128152389Y-77630866D01*
X127737423Y-77254959D01*
X127349039Y-77094096D01*
X127127000Y-77216085D01*
X126873000Y-77216085D01*
X126650961Y-77094096D01*
X126262577Y-77254959D01*
X125847611Y-77630866D01*
X125730000Y-77879367D01*
X125612389Y-77630866D01*
X125197423Y-77254959D01*
X124809039Y-77094096D01*
X124587000Y-77216085D01*
X124333000Y-77216085D01*
X124110961Y-77094096D01*
X123722577Y-77254959D01*
X123307611Y-77630866D01*
X123190000Y-77879367D01*
X123072389Y-77630866D01*
X122657423Y-77254959D01*
X122269039Y-77094096D01*
X122047000Y-77216085D01*
X121793000Y-77216085D01*
X121570961Y-77094096D01*
X121182577Y-77254959D01*
X120767611Y-77630866D01*
X120650000Y-77879367D01*
X120532389Y-77630866D01*
X120117423Y-77254959D01*
X119729039Y-77094096D01*
X119507000Y-77216085D01*
X119253000Y-77216085D01*
X119030961Y-77094096D01*
X118642577Y-77254959D01*
X118227611Y-77630866D01*
X118110000Y-77879367D01*
X117992389Y-77630866D01*
X117577423Y-77254959D01*
X117189039Y-77094096D01*
X116967000Y-77216085D01*
X116713000Y-77216085D01*
X116490961Y-77094096D01*
X116102577Y-77254959D01*
X115687611Y-77630866D01*
X115448086Y-78136959D01*
X113727894Y-78136959D01*
X113899334Y-77724086D01*
X113900423Y-76476906D01*
X113424153Y-75324245D01*
X112708917Y-74607760D01*
X146421796Y-74607760D01*
X145708706Y-75319607D01*
X145708706Y-75319607D01*
G37*
X145708706Y-75319607D02*
X145230426Y-76471434D01*
X145229337Y-77718614D01*
X145705607Y-78871275D01*
X146586727Y-79753934D01*
X147738554Y-80232214D01*
X148985734Y-80233303D01*
X150138395Y-79757033D01*
X150854880Y-79041797D01*
X150854880Y-96554676D01*
X150143033Y-95841586D01*
X148991206Y-95363306D01*
X147744026Y-95362217D01*
X146591365Y-95838487D01*
X145708706Y-96719607D01*
X145230426Y-97871434D01*
X145229337Y-99118614D01*
X145705607Y-100271275D01*
X146321017Y-100887760D01*
X112808138Y-100887760D01*
X113421054Y-100275913D01*
X113899334Y-99124086D01*
X113900423Y-97876906D01*
X113424153Y-96724245D01*
X112543033Y-95841586D01*
X111391206Y-95363306D01*
X110144026Y-95362217D01*
X108991365Y-95838487D01*
X108374880Y-96453897D01*
X108374880Y-93113015D01*
X114066280Y-93113015D01*
X114066280Y-93482505D01*
X114180354Y-94055994D01*
X114505210Y-94542175D01*
X114991391Y-94867031D01*
X115564880Y-94981105D01*
X116138369Y-94867031D01*
X116624550Y-94542175D01*
X116831341Y-94232691D01*
X117202844Y-94648492D01*
X117730089Y-94902469D01*
X117745854Y-94905118D01*
X117977880Y-94783977D01*
X117977880Y-93424760D01*
X117957880Y-93424760D01*
X117957880Y-93170760D01*
X117977880Y-93170760D01*
X117977880Y-91811543D01*
X118231880Y-91811543D01*
X118231880Y-93170760D01*
X118251880Y-93170760D01*
X118251880Y-93424760D01*
X118231880Y-93424760D01*
X118231880Y-94783977D01*
X118463906Y-94905118D01*
X118479671Y-94902469D01*
X119006916Y-94648492D01*
X119378419Y-94232691D01*
X119585210Y-94542175D01*
X119755880Y-94656213D01*
X119755880Y-96948736D01*
X119730042Y-97010961D01*
X119729718Y-97382927D01*
X119871763Y-97726703D01*
X120134553Y-97989952D01*
X120478081Y-98132598D01*
X120850047Y-98132922D01*
X121193823Y-97990877D01*
X121457072Y-97728087D01*
X121599718Y-97384559D01*
X121600042Y-97012593D01*
X121533880Y-96852468D01*
X121533880Y-94656213D01*
X121704550Y-94542175D01*
X121914880Y-94227394D01*
X122125210Y-94542175D01*
X122611391Y-94867031D01*
X123184880Y-94981105D01*
X123758369Y-94867031D01*
X124244550Y-94542175D01*
X124454880Y-94227394D01*
X124665210Y-94542175D01*
X125151391Y-94867031D01*
X125724880Y-94981105D01*
X126298369Y-94867031D01*
X126784550Y-94542175D01*
X126794123Y-94527847D01*
X126798118Y-94549077D01*
X126937190Y-94765201D01*
X127149390Y-94910191D01*
X127401280Y-94961200D01*
X129128480Y-94961200D01*
X129363797Y-94916922D01*
X129579921Y-94777850D01*
X129724911Y-94565650D01*
X129775920Y-94313760D01*
X129775920Y-92281760D01*
X129731642Y-92046443D01*
X129592570Y-91830319D01*
X129380370Y-91685329D01*
X129128480Y-91634320D01*
X127401280Y-91634320D01*
X127165963Y-91678598D01*
X126949839Y-91817670D01*
X126804849Y-92029870D01*
X126796480Y-92071199D01*
X126784550Y-92053345D01*
X126298369Y-91728489D01*
X125724880Y-91614415D01*
X125151391Y-91728489D01*
X124665210Y-92053345D01*
X124454880Y-92368126D01*
X124244550Y-92053345D01*
X123758369Y-91728489D01*
X123184880Y-91614415D01*
X122611391Y-91728489D01*
X122125210Y-92053345D01*
X121914880Y-92368126D01*
X121704550Y-92053345D01*
X121218369Y-91728489D01*
X120644880Y-91614415D01*
X120071391Y-91728489D01*
X119585210Y-92053345D01*
X119378419Y-92362829D01*
X119006916Y-91947028D01*
X118479671Y-91693051D01*
X118463906Y-91690402D01*
X118231880Y-91811543D01*
X117977880Y-91811543D01*
X117745854Y-91690402D01*
X117730089Y-91693051D01*
X117202844Y-91947028D01*
X116831341Y-92362829D01*
X116624550Y-92053345D01*
X116138369Y-91728489D01*
X115564880Y-91614415D01*
X114991391Y-91728489D01*
X114505210Y-92053345D01*
X114180354Y-92539526D01*
X114066280Y-93113015D01*
X108374880Y-93113015D01*
X108374880Y-88995041D01*
X115448086Y-88995041D01*
X115687611Y-89501134D01*
X116102577Y-89877041D01*
X116490961Y-90037904D01*
X116713000Y-89915915D01*
X116713000Y-88773000D01*
X116967000Y-88773000D01*
X116967000Y-89915915D01*
X117189039Y-90037904D01*
X117577423Y-89877041D01*
X117992389Y-89501134D01*
X118110000Y-89252633D01*
X118227611Y-89501134D01*
X118642577Y-89877041D01*
X119030961Y-90037904D01*
X119253000Y-89915915D01*
X119253000Y-88773000D01*
X119507000Y-88773000D01*
X119507000Y-89915915D01*
X119729039Y-90037904D01*
X120117423Y-89877041D01*
X120532389Y-89501134D01*
X120650000Y-89252633D01*
X120767611Y-89501134D01*
X121182577Y-89877041D01*
X121570961Y-90037904D01*
X121793000Y-89915915D01*
X121793000Y-88773000D01*
X122047000Y-88773000D01*
X122047000Y-89915915D01*
X122269039Y-90037904D01*
X122657423Y-89877041D01*
X123072389Y-89501134D01*
X123190000Y-89252633D01*
X123307611Y-89501134D01*
X123722577Y-89877041D01*
X124110961Y-90037904D01*
X124333000Y-89915915D01*
X124333000Y-88773000D01*
X124587000Y-88773000D01*
X124587000Y-89915915D01*
X124809039Y-90037904D01*
X125197423Y-89877041D01*
X125612389Y-89501134D01*
X125730000Y-89252633D01*
X125847611Y-89501134D01*
X126262577Y-89877041D01*
X126650961Y-90037904D01*
X126873000Y-89915915D01*
X126873000Y-88773000D01*
X127127000Y-88773000D01*
X127127000Y-89915915D01*
X127349039Y-90037904D01*
X127737423Y-89877041D01*
X128152389Y-89501134D01*
X128270000Y-89252633D01*
X128387611Y-89501134D01*
X128802577Y-89877041D01*
X129190961Y-90037904D01*
X129413000Y-89915915D01*
X129413000Y-88773000D01*
X127127000Y-88773000D01*
X126873000Y-88773000D01*
X124587000Y-88773000D01*
X124333000Y-88773000D01*
X122047000Y-88773000D01*
X121793000Y-88773000D01*
X119507000Y-88773000D01*
X119253000Y-88773000D01*
X116967000Y-88773000D01*
X116713000Y-88773000D01*
X115569371Y-88773000D01*
X115448086Y-88995041D01*
X108374880Y-88995041D01*
X108374880Y-79141018D01*
X108986727Y-79753934D01*
X110138554Y-80232214D01*
X111385734Y-80233303D01*
X112197809Y-79897760D01*
X114054880Y-79897760D01*
X114054880Y-87297760D01*
X114108926Y-87569465D01*
X114262834Y-87799806D01*
X114493175Y-87953714D01*
X114764880Y-88007760D01*
X115584959Y-88007760D01*
X115448086Y-88296959D01*
X115569371Y-88519000D01*
X116713000Y-88519000D01*
X116713000Y-88499000D01*
X116967000Y-88499000D01*
X116967000Y-88519000D01*
X119253000Y-88519000D01*
X119253000Y-88499000D01*
X119507000Y-88499000D01*
X119507000Y-88519000D01*
X121793000Y-88519000D01*
X121793000Y-88499000D01*
X122047000Y-88499000D01*
X122047000Y-88519000D01*
X124333000Y-88519000D01*
X124333000Y-88499000D01*
X124587000Y-88499000D01*
X124587000Y-88519000D01*
X126873000Y-88519000D01*
X126873000Y-88499000D01*
X127127000Y-88499000D01*
X127127000Y-88519000D01*
X129413000Y-88519000D01*
X129413000Y-88499000D01*
X129667000Y-88499000D01*
X129667000Y-88519000D01*
X129687000Y-88519000D01*
X129687000Y-88773000D01*
X129667000Y-88773000D01*
X129667000Y-89915915D01*
X129889039Y-90037904D01*
X130277423Y-89877041D01*
X130692389Y-89501134D01*
X130795014Y-89284297D01*
X131065302Y-89688811D01*
X131530849Y-89999880D01*
X132080000Y-90109113D01*
X132629151Y-89999880D01*
X133094698Y-89688811D01*
X133350000Y-89306725D01*
X133605302Y-89688811D01*
X134070849Y-89999880D01*
X134620000Y-90109113D01*
X135169151Y-89999880D01*
X135634698Y-89688811D01*
X135890000Y-89306725D01*
X136145302Y-89688811D01*
X136610849Y-89999880D01*
X137160000Y-90109113D01*
X137709151Y-89999880D01*
X138174698Y-89688811D01*
X138430000Y-89306725D01*
X138685302Y-89688811D01*
X139150849Y-89999880D01*
X139700000Y-90109113D01*
X140249151Y-89999880D01*
X140714698Y-89688811D01*
X140970000Y-89306725D01*
X141225302Y-89688811D01*
X141690849Y-89999880D01*
X142240000Y-90109113D01*
X142789151Y-89999880D01*
X143254698Y-89688811D01*
X143565767Y-89223264D01*
X143675000Y-88674113D01*
X143675000Y-88617887D01*
X143565767Y-88068736D01*
X143525024Y-88007760D01*
X144264880Y-88007760D01*
X144536585Y-87953714D01*
X144766926Y-87799806D01*
X144920834Y-87569465D01*
X144974880Y-87297760D01*
X144974880Y-79897760D01*
X144920834Y-79626055D01*
X144766926Y-79395714D01*
X144536585Y-79241806D01*
X144264880Y-79187760D01*
X143464978Y-79187760D01*
X143631914Y-78835041D01*
X143510629Y-78613000D01*
X142367000Y-78613000D01*
X142367000Y-78633000D01*
X142113000Y-78633000D01*
X142113000Y-78613000D01*
X142093000Y-78613000D01*
X142093000Y-78359000D01*
X142113000Y-78359000D01*
X142113000Y-77216085D01*
X142367000Y-77216085D01*
X142367000Y-78359000D01*
X143510629Y-78359000D01*
X143631914Y-78136959D01*
X143392389Y-77630866D01*
X142977423Y-77254959D01*
X142589039Y-77094096D01*
X142367000Y-77216085D01*
X142113000Y-77216085D01*
X141890961Y-77094096D01*
X141502577Y-77254959D01*
X141087611Y-77630866D01*
X140984986Y-77847703D01*
X140714698Y-77443189D01*
X140249151Y-77132120D01*
X139700000Y-77022887D01*
X139150849Y-77132120D01*
X138685302Y-77443189D01*
X138415014Y-77847703D01*
X138312389Y-77630866D01*
X137897423Y-77254959D01*
X137509039Y-77094096D01*
X137287000Y-77216085D01*
X137287000Y-78359000D01*
X137307000Y-78359000D01*
X137307000Y-78613000D01*
X137287000Y-78613000D01*
X137287000Y-78633000D01*
X137033000Y-78633000D01*
X137033000Y-78613000D01*
X134747000Y-78613000D01*
X134747000Y-78633000D01*
X134493000Y-78633000D01*
X134493000Y-78613000D01*
X132207000Y-78613000D01*
X132207000Y-78633000D01*
X131953000Y-78633000D01*
X131953000Y-78613000D01*
X129667000Y-78613000D01*
X129667000Y-78633000D01*
X129413000Y-78633000D01*
X129413000Y-78613000D01*
X127127000Y-78613000D01*
X127127000Y-78633000D01*
X126873000Y-78633000D01*
X126873000Y-78613000D01*
X124587000Y-78613000D01*
X124587000Y-78633000D01*
X124333000Y-78633000D01*
X124333000Y-78613000D01*
X122047000Y-78613000D01*
X122047000Y-78633000D01*
X121793000Y-78633000D01*
X121793000Y-78613000D01*
X119507000Y-78613000D01*
X119507000Y-78633000D01*
X119253000Y-78633000D01*
X119253000Y-78613000D01*
X116967000Y-78613000D01*
X116967000Y-78633000D01*
X116713000Y-78633000D01*
X116713000Y-78613000D01*
X115569371Y-78613000D01*
X115448086Y-78835041D01*
X115615022Y-79187760D01*
X114764880Y-79187760D01*
X114493175Y-79241806D01*
X114262834Y-79395714D01*
X114108926Y-79626055D01*
X114054880Y-79897760D01*
X112197809Y-79897760D01*
X112538395Y-79757033D01*
X113421054Y-78875913D01*
X113727894Y-78136959D01*
X115448086Y-78136959D01*
X115569371Y-78359000D01*
X116713000Y-78359000D01*
X116713000Y-77216085D01*
X116967000Y-77216085D01*
X116967000Y-78359000D01*
X119253000Y-78359000D01*
X119253000Y-77216085D01*
X119507000Y-77216085D01*
X119507000Y-78359000D01*
X121793000Y-78359000D01*
X121793000Y-77216085D01*
X122047000Y-77216085D01*
X122047000Y-78359000D01*
X124333000Y-78359000D01*
X124333000Y-77216085D01*
X124587000Y-77216085D01*
X124587000Y-78359000D01*
X126873000Y-78359000D01*
X126873000Y-77216085D01*
X127127000Y-77216085D01*
X127127000Y-78359000D01*
X129413000Y-78359000D01*
X129413000Y-77216085D01*
X129667000Y-77216085D01*
X129667000Y-78359000D01*
X131953000Y-78359000D01*
X131953000Y-77216085D01*
X132207000Y-77216085D01*
X132207000Y-78359000D01*
X134493000Y-78359000D01*
X134493000Y-77216085D01*
X134747000Y-77216085D01*
X134747000Y-78359000D01*
X137033000Y-78359000D01*
X137033000Y-77216085D01*
X136810961Y-77094096D01*
X136422577Y-77254959D01*
X136007611Y-77630866D01*
X135890000Y-77879367D01*
X135772389Y-77630866D01*
X135357423Y-77254959D01*
X134969039Y-77094096D01*
X134747000Y-77216085D01*
X134493000Y-77216085D01*
X134270961Y-77094096D01*
X133882577Y-77254959D01*
X133467611Y-77630866D01*
X133350000Y-77879367D01*
X133232389Y-77630866D01*
X132817423Y-77254959D01*
X132429039Y-77094096D01*
X132207000Y-77216085D01*
X131953000Y-77216085D01*
X131730961Y-77094096D01*
X131342577Y-77254959D01*
X130927611Y-77630866D01*
X130810000Y-77879367D01*
X130692389Y-77630866D01*
X130277423Y-77254959D01*
X129889039Y-77094096D01*
X129667000Y-77216085D01*
X129413000Y-77216085D01*
X129190961Y-77094096D01*
X128802577Y-77254959D01*
X128387611Y-77630866D01*
X128270000Y-77879367D01*
X128152389Y-77630866D01*
X127737423Y-77254959D01*
X127349039Y-77094096D01*
X127127000Y-77216085D01*
X126873000Y-77216085D01*
X126650961Y-77094096D01*
X126262577Y-77254959D01*
X125847611Y-77630866D01*
X125730000Y-77879367D01*
X125612389Y-77630866D01*
X125197423Y-77254959D01*
X124809039Y-77094096D01*
X124587000Y-77216085D01*
X124333000Y-77216085D01*
X124110961Y-77094096D01*
X123722577Y-77254959D01*
X123307611Y-77630866D01*
X123190000Y-77879367D01*
X123072389Y-77630866D01*
X122657423Y-77254959D01*
X122269039Y-77094096D01*
X122047000Y-77216085D01*
X121793000Y-77216085D01*
X121570961Y-77094096D01*
X121182577Y-77254959D01*
X120767611Y-77630866D01*
X120650000Y-77879367D01*
X120532389Y-77630866D01*
X120117423Y-77254959D01*
X119729039Y-77094096D01*
X119507000Y-77216085D01*
X119253000Y-77216085D01*
X119030961Y-77094096D01*
X118642577Y-77254959D01*
X118227611Y-77630866D01*
X118110000Y-77879367D01*
X117992389Y-77630866D01*
X117577423Y-77254959D01*
X117189039Y-77094096D01*
X116967000Y-77216085D01*
X116713000Y-77216085D01*
X116490961Y-77094096D01*
X116102577Y-77254959D01*
X115687611Y-77630866D01*
X115448086Y-78136959D01*
X113727894Y-78136959D01*
X113899334Y-77724086D01*
X113900423Y-76476906D01*
X113424153Y-75324245D01*
X112708917Y-74607760D01*
X146421796Y-74607760D01*
X145708706Y-75319607D01*
M02*
