G04 #@! TF.FileFunction,Copper,L1,Top,Signal*
%FSLAX46Y46*%
G04 Gerber Fmt 4.6, Leading zero omitted, Abs format (unit mm)*
G04 Created by KiCad (PCBNEW 4.0.5+dfsg1-4) date Sat Mar 17 17:37:26 2018*
%MOMM*%
%LPD*%
G01*
G04 APERTURE LIST*
%ADD10C,0.100000*%
%ADD11R,0.600000X1.500000*%
%ADD12R,1.727200X2.032000*%
%ADD13O,1.727200X2.032000*%
%ADD14O,1.600000X1.600000*%
%ADD15R,1.900000X0.800000*%
%ADD16C,5.000000*%
%ADD17R,1.250000X1.000000*%
%ADD18R,1.000000X1.250000*%
%ADD19R,1.000000X1.600000*%
%ADD20R,1.560000X0.650000*%
%ADD21C,0.600000*%
%ADD22C,0.508000*%
%ADD23C,0.250000*%
G04 APERTURE END LIST*
D10*
D11*
X138474880Y-90597760D03*
X137204880Y-90597760D03*
X135934880Y-90597760D03*
X134664880Y-90597760D03*
X133394880Y-90597760D03*
X132124880Y-90597760D03*
X130854880Y-90597760D03*
X130854880Y-95997760D03*
X132124880Y-95997760D03*
X133394880Y-95997760D03*
X134664880Y-95997760D03*
X135934880Y-95997760D03*
X137204880Y-95997760D03*
X138474880Y-95997760D03*
D12*
X128264880Y-93297760D03*
D13*
X125724880Y-93297760D03*
X123184880Y-93297760D03*
X120644880Y-93297760D03*
X118104880Y-93297760D03*
X115564880Y-93297760D03*
D14*
X142240000Y-88646000D03*
X139700000Y-88646000D03*
X137160000Y-88646000D03*
X134620000Y-88646000D03*
X132080000Y-88646000D03*
X129540000Y-88646000D03*
X127000000Y-88646000D03*
X124460000Y-88646000D03*
X121920000Y-88646000D03*
X119380000Y-88646000D03*
X116840000Y-88646000D03*
X116840000Y-78486000D03*
X119380000Y-78486000D03*
X121920000Y-78486000D03*
X124460000Y-78486000D03*
X127000000Y-78486000D03*
X129540000Y-78486000D03*
X132080000Y-78486000D03*
X134620000Y-78486000D03*
X137160000Y-78486000D03*
X139700000Y-78486000D03*
X142240000Y-78486000D03*
D15*
X135064880Y-76647760D03*
X135064880Y-74747760D03*
X132064880Y-75697760D03*
D16*
X110764880Y-77097760D03*
X148364880Y-77097760D03*
X110764880Y-98497760D03*
X148364880Y-98497760D03*
D17*
X118264880Y-98597760D03*
X118264880Y-100597760D03*
D18*
X127064880Y-99697760D03*
X125064880Y-99697760D03*
D19*
X122964880Y-96597760D03*
X125964880Y-96597760D03*
D17*
X140064880Y-96197760D03*
X140064880Y-98197760D03*
D18*
X144464880Y-90797760D03*
X142464880Y-90797760D03*
D17*
X131264880Y-100697760D03*
X131264880Y-98697760D03*
X129264880Y-98697760D03*
X129264880Y-100697760D03*
D18*
X115664880Y-96397760D03*
X117664880Y-96397760D03*
X137464880Y-76497760D03*
X139464880Y-76497760D03*
X129864880Y-76097760D03*
X127864880Y-76097760D03*
D20*
X120414880Y-98647760D03*
X120414880Y-99597760D03*
X120414880Y-100547760D03*
X123114880Y-100547760D03*
X123114880Y-98647760D03*
D21*
X140064880Y-99097760D03*
X119264880Y-99597760D03*
X125064880Y-97097760D03*
X132364880Y-98697760D03*
X145364880Y-90997760D03*
X120664880Y-97197760D03*
D22*
X138474880Y-95997760D02*
X139864880Y-95997760D01*
X139864880Y-95997760D02*
X142240000Y-93622640D01*
X142240000Y-93622640D02*
X142240000Y-88646000D01*
D23*
X127064880Y-99697760D02*
X127064880Y-98697760D01*
X127064880Y-98697760D02*
X127364880Y-98397760D01*
X129064880Y-98897760D02*
X129064880Y-97497760D01*
X129064880Y-97497760D02*
X129064880Y-97597760D01*
X129064880Y-97597760D02*
X129064880Y-97497760D01*
X132064880Y-97497760D02*
X132064880Y-96057760D01*
X132064880Y-96057760D02*
X132124880Y-95997760D01*
X134764880Y-97497760D02*
X134764880Y-96097760D01*
X134764880Y-96097760D02*
X134664880Y-95997760D01*
X137204880Y-95997760D02*
X137204880Y-97497760D01*
X137264880Y-97397760D02*
X137264880Y-97497760D01*
X137264880Y-97437760D02*
X137264880Y-97397760D01*
X137204880Y-97497760D02*
X137264880Y-97437760D01*
D22*
X123114880Y-98647760D02*
X123914880Y-98647760D01*
X138474880Y-97387760D02*
X138474880Y-95997760D01*
X138364880Y-97497760D02*
X138474880Y-97387760D01*
X128264880Y-97497760D02*
X129064880Y-97497760D01*
X129064880Y-97497760D02*
X132064880Y-97497760D01*
X132064880Y-97497760D02*
X134764880Y-97497760D01*
X134764880Y-97497760D02*
X137264880Y-97497760D01*
X137264880Y-97497760D02*
X138364880Y-97497760D01*
X127364880Y-98397760D02*
X128264880Y-97497760D01*
X124164880Y-98397760D02*
X127364880Y-98397760D01*
X123914880Y-98647760D02*
X124164880Y-98397760D01*
X122964880Y-96597760D02*
X122964880Y-98497760D01*
X122964880Y-98497760D02*
X123114880Y-98647760D01*
D23*
X117664880Y-96397760D02*
X122764880Y-96397760D01*
X122764880Y-96397760D02*
X122964880Y-96597760D01*
D22*
X142260000Y-91033600D02*
X142260000Y-88666000D01*
D23*
X142260000Y-88666000D02*
X142240000Y-88646000D01*
D22*
X139700000Y-88646000D02*
X142240000Y-88646000D01*
D23*
X125064880Y-99697760D02*
X122064880Y-99697760D01*
X121214880Y-100547760D02*
X120414880Y-100547760D01*
X122064880Y-99697760D02*
X121214880Y-100547760D01*
X127000000Y-78486000D02*
X127000000Y-76962640D01*
X127000000Y-76962640D02*
X127864880Y-76097760D01*
X140064880Y-98197760D02*
X140064880Y-99097760D01*
X130854880Y-90597760D02*
X130854880Y-89960880D01*
X130854880Y-89960880D02*
X129540000Y-88646000D01*
X118264880Y-100597760D02*
X118564880Y-100597760D01*
X118564880Y-100597760D02*
X119264880Y-99597760D01*
X120664880Y-99597760D02*
X119264880Y-99597760D01*
X125864880Y-97097760D02*
X125064880Y-97097760D01*
X131164880Y-98697760D02*
X132364880Y-98697760D01*
X116564880Y-88921120D02*
X116840000Y-88646000D01*
X144760000Y-91033600D02*
X145263280Y-91099360D01*
X145263280Y-91099360D02*
X145364880Y-90997760D01*
X128264880Y-93297760D02*
X134364880Y-93297760D01*
X135934880Y-91727760D02*
X135934880Y-90597760D01*
X134364880Y-93297760D02*
X135934880Y-91727760D01*
X133394880Y-90597760D02*
X133394880Y-91867760D01*
X125724880Y-91937760D02*
X125724880Y-93297760D01*
X126164880Y-91497760D02*
X125724880Y-91937760D01*
X129464880Y-91497760D02*
X126164880Y-91497760D01*
X130264880Y-92297760D02*
X129464880Y-91497760D01*
X132964880Y-92297760D02*
X130264880Y-92297760D01*
X133394880Y-91867760D02*
X132964880Y-92297760D01*
X138474880Y-90597760D02*
X138474880Y-91887760D01*
X123184880Y-94717760D02*
X123184880Y-93297760D01*
X123564880Y-95097760D02*
X123184880Y-94717760D01*
X129464880Y-95097760D02*
X123564880Y-95097760D01*
X130264880Y-94297760D02*
X129464880Y-95097760D01*
X136064880Y-94297760D02*
X130264880Y-94297760D01*
X138474880Y-91887760D02*
X136064880Y-94297760D01*
X123184880Y-94097760D02*
X123264880Y-94097760D01*
D22*
X120664880Y-98397760D02*
X120664880Y-97197760D01*
X120664880Y-98397760D02*
X120414880Y-98647760D01*
X120664880Y-98647760D02*
X118314880Y-98647760D01*
X118314880Y-98647760D02*
X118264880Y-98597760D01*
D23*
X113864880Y-78397760D02*
X113864880Y-91597760D01*
X117514880Y-74747760D02*
X113864880Y-78397760D01*
X135064880Y-74747760D02*
X117514880Y-74747760D01*
X113864880Y-91597760D02*
X115564880Y-93297760D01*
X115664880Y-96397760D02*
X115664880Y-93397760D01*
X115664880Y-93397760D02*
X115564880Y-93297760D01*
X135064880Y-76647760D02*
X137314880Y-76647760D01*
X137314880Y-76647760D02*
X137464880Y-76497760D01*
X132064880Y-75697760D02*
X130264880Y-75697760D01*
X130264880Y-75697760D02*
X129864880Y-76097760D01*
X129064880Y-100897760D02*
X123464880Y-100897760D01*
X123464880Y-100897760D02*
X123114880Y-100547760D01*
X129064880Y-100697760D02*
X131164880Y-100697760D01*
X139729200Y-76047600D02*
X139729200Y-78456800D01*
X139729200Y-78456800D02*
X139700000Y-78486000D01*
X137160000Y-91280000D02*
X137160000Y-88646000D01*
X134620000Y-91280000D02*
X134620000Y-88646000D01*
X132080000Y-91280000D02*
X132080000Y-88646000D01*
M02*
