G04 #@! TF.FileFunction,Soldermask,Top*
%FSLAX46Y46*%
G04 Gerber Fmt 4.6, Leading zero omitted, Abs format (unit mm)*
G04 Created by KiCad (PCBNEW 4.0.5+dfsg1-4) date Sat Mar 17 17:37:26 2018*
%MOMM*%
%LPD*%
G01*
G04 APERTURE LIST*
%ADD10C,0.100000*%
%ADD11R,1.000000X1.900000*%
%ADD12R,2.127200X2.432000*%
%ADD13O,2.127200X2.432000*%
%ADD14O,2.000000X2.000000*%
%ADD15R,2.300000X1.200000*%
%ADD16C,5.400000*%
%ADD17R,1.650000X1.400000*%
%ADD18R,1.400000X1.650000*%
%ADD19R,1.400000X2.000000*%
%ADD20R,1.960000X1.050000*%
G04 APERTURE END LIST*
D10*
D11*
X138474880Y-90597760D03*
X137204880Y-90597760D03*
X135934880Y-90597760D03*
X134664880Y-90597760D03*
X133394880Y-90597760D03*
X132124880Y-90597760D03*
X130854880Y-90597760D03*
X130854880Y-95997760D03*
X132124880Y-95997760D03*
X133394880Y-95997760D03*
X134664880Y-95997760D03*
X135934880Y-95997760D03*
X137204880Y-95997760D03*
X138474880Y-95997760D03*
D12*
X128264880Y-93297760D03*
D13*
X125724880Y-93297760D03*
X123184880Y-93297760D03*
X120644880Y-93297760D03*
X118104880Y-93297760D03*
X115564880Y-93297760D03*
D14*
X142240000Y-88646000D03*
X139700000Y-88646000D03*
X137160000Y-88646000D03*
X134620000Y-88646000D03*
X132080000Y-88646000D03*
X129540000Y-88646000D03*
X127000000Y-88646000D03*
X124460000Y-88646000D03*
X121920000Y-88646000D03*
X119380000Y-88646000D03*
X116840000Y-88646000D03*
X116840000Y-78486000D03*
X119380000Y-78486000D03*
X121920000Y-78486000D03*
X124460000Y-78486000D03*
X127000000Y-78486000D03*
X129540000Y-78486000D03*
X132080000Y-78486000D03*
X134620000Y-78486000D03*
X137160000Y-78486000D03*
X139700000Y-78486000D03*
X142240000Y-78486000D03*
D15*
X135064880Y-76647760D03*
X135064880Y-74747760D03*
X132064880Y-75697760D03*
D16*
X110764880Y-77097760D03*
X148364880Y-77097760D03*
X110764880Y-98497760D03*
X148364880Y-98497760D03*
D17*
X118264880Y-98597760D03*
X118264880Y-100597760D03*
D18*
X127064880Y-99697760D03*
X125064880Y-99697760D03*
D19*
X122964880Y-96597760D03*
X125964880Y-96597760D03*
D17*
X140064880Y-96197760D03*
X140064880Y-98197760D03*
D18*
X144464880Y-90797760D03*
X142464880Y-90797760D03*
D17*
X131264880Y-100697760D03*
X131264880Y-98697760D03*
X129264880Y-98697760D03*
X129264880Y-100697760D03*
D18*
X115664880Y-96397760D03*
X117664880Y-96397760D03*
X137464880Y-76497760D03*
X139464880Y-76497760D03*
X129864880Y-76097760D03*
X127864880Y-76097760D03*
D20*
X120414880Y-98647760D03*
X120414880Y-99597760D03*
X120414880Y-100547760D03*
X123114880Y-100547760D03*
X123114880Y-98647760D03*
M02*
