G04 #@! TF.FileFunction,Copper,L2,Bot,Signal*
%FSLAX46Y46*%
G04 Gerber Fmt 4.6, Leading zero omitted, Abs format (unit mm)*
G04 Created by KiCad (PCBNEW 4.0.5+dfsg1-4) date Wed Oct 11 14:54:32 2017*
%MOMM*%
%LPD*%
G01*
G04 APERTURE LIST*
%ADD10C,0.100000*%
%ADD11O,1.600000X1.600000*%
%ADD12R,1.727200X2.032000*%
%ADD13O,1.727200X2.032000*%
%ADD14C,5.000000*%
%ADD15C,0.600000*%
%ADD16C,0.508000*%
%ADD17C,0.254000*%
G04 APERTURE END LIST*
D10*
D11*
X142240000Y-88646000D03*
X139700000Y-88646000D03*
X137160000Y-88646000D03*
X134620000Y-88646000D03*
X132080000Y-88646000D03*
X129540000Y-88646000D03*
X127000000Y-88646000D03*
X124460000Y-88646000D03*
X121920000Y-88646000D03*
X119380000Y-88646000D03*
X116840000Y-88646000D03*
X116840000Y-78486000D03*
X119380000Y-78486000D03*
X121920000Y-78486000D03*
X124460000Y-78486000D03*
X127000000Y-78486000D03*
X129540000Y-78486000D03*
X132080000Y-78486000D03*
X134620000Y-78486000D03*
X137160000Y-78486000D03*
X139700000Y-78486000D03*
X142240000Y-78486000D03*
D12*
X126164880Y-93997760D03*
D13*
X123624880Y-93997760D03*
X121084880Y-93997760D03*
X118544880Y-93997760D03*
X116004880Y-93997760D03*
X113464880Y-93997760D03*
D14*
X110764880Y-76297760D03*
X148364880Y-76297760D03*
X110764880Y-99497760D03*
X148364880Y-99497760D03*
D15*
X140564880Y-100697760D03*
X117564880Y-100797760D03*
X126664880Y-97497760D03*
X136939880Y-100797760D03*
X146164880Y-90947760D03*
X118589880Y-98497760D03*
D16*
X118589880Y-98497760D02*
X118544880Y-93997760D01*
D17*
G36*
X145708706Y-74519607D02*
X145230426Y-75671434D01*
X145229337Y-76918614D01*
X145705607Y-78071275D01*
X146586727Y-78953934D01*
X147738554Y-79432214D01*
X148985734Y-79433303D01*
X150138395Y-78957033D01*
X150854880Y-78241797D01*
X150854880Y-97554676D01*
X150143033Y-96841586D01*
X148991206Y-96363306D01*
X147744026Y-96362217D01*
X146591365Y-96838487D01*
X145708706Y-97719607D01*
X145230426Y-98871434D01*
X145229337Y-100118614D01*
X145705607Y-101271275D01*
X146420843Y-101987760D01*
X112707964Y-101987760D01*
X113421054Y-101275913D01*
X113899334Y-100124086D01*
X113900423Y-98876906D01*
X113424153Y-97724245D01*
X112543033Y-96841586D01*
X111391206Y-96363306D01*
X110144026Y-96362217D01*
X108991365Y-96838487D01*
X108274880Y-97553723D01*
X108274880Y-93813015D01*
X111966280Y-93813015D01*
X111966280Y-94182505D01*
X112080354Y-94755994D01*
X112405210Y-95242175D01*
X112891391Y-95567031D01*
X113464880Y-95681105D01*
X114038369Y-95567031D01*
X114524550Y-95242175D01*
X114731341Y-94932691D01*
X115102844Y-95348492D01*
X115630089Y-95602469D01*
X115645854Y-95605118D01*
X115877880Y-95483977D01*
X115877880Y-94124760D01*
X115857880Y-94124760D01*
X115857880Y-93870760D01*
X115877880Y-93870760D01*
X115877880Y-92511543D01*
X116131880Y-92511543D01*
X116131880Y-93870760D01*
X116151880Y-93870760D01*
X116151880Y-94124760D01*
X116131880Y-94124760D01*
X116131880Y-95483977D01*
X116363906Y-95605118D01*
X116379671Y-95602469D01*
X116906916Y-95348492D01*
X117278419Y-94932691D01*
X117485210Y-95242175D01*
X117669511Y-95365321D01*
X117697934Y-98207666D01*
X117655042Y-98310961D01*
X117654718Y-98682927D01*
X117796763Y-99026703D01*
X118059553Y-99289952D01*
X118403081Y-99432598D01*
X118775047Y-99432922D01*
X119118823Y-99290877D01*
X119382072Y-99028087D01*
X119524718Y-98684559D01*
X119525042Y-98312593D01*
X119475884Y-98193620D01*
X119447419Y-95347167D01*
X119604550Y-95242175D01*
X119814880Y-94927394D01*
X120025210Y-95242175D01*
X120511391Y-95567031D01*
X121084880Y-95681105D01*
X121658369Y-95567031D01*
X122144550Y-95242175D01*
X122354880Y-94927394D01*
X122565210Y-95242175D01*
X123051391Y-95567031D01*
X123624880Y-95681105D01*
X124198369Y-95567031D01*
X124684550Y-95242175D01*
X124694123Y-95227847D01*
X124698118Y-95249077D01*
X124837190Y-95465201D01*
X125049390Y-95610191D01*
X125301280Y-95661200D01*
X127028480Y-95661200D01*
X127263797Y-95616922D01*
X127479921Y-95477850D01*
X127624911Y-95265650D01*
X127675920Y-95013760D01*
X127675920Y-92981760D01*
X127631642Y-92746443D01*
X127492570Y-92530319D01*
X127280370Y-92385329D01*
X127028480Y-92334320D01*
X125301280Y-92334320D01*
X125065963Y-92378598D01*
X124849839Y-92517670D01*
X124704849Y-92729870D01*
X124696480Y-92771199D01*
X124684550Y-92753345D01*
X124198369Y-92428489D01*
X123624880Y-92314415D01*
X123051391Y-92428489D01*
X122565210Y-92753345D01*
X122354880Y-93068126D01*
X122144550Y-92753345D01*
X121658369Y-92428489D01*
X121084880Y-92314415D01*
X120511391Y-92428489D01*
X120025210Y-92753345D01*
X119814880Y-93068126D01*
X119604550Y-92753345D01*
X119118369Y-92428489D01*
X118544880Y-92314415D01*
X117971391Y-92428489D01*
X117485210Y-92753345D01*
X117278419Y-93062829D01*
X116906916Y-92647028D01*
X116379671Y-92393051D01*
X116363906Y-92390402D01*
X116131880Y-92511543D01*
X115877880Y-92511543D01*
X115645854Y-92390402D01*
X115630089Y-92393051D01*
X115102844Y-92647028D01*
X114731341Y-93062829D01*
X114524550Y-92753345D01*
X114038369Y-92428489D01*
X113464880Y-92314415D01*
X112891391Y-92428489D01*
X112405210Y-92753345D01*
X112080354Y-93239526D01*
X111966280Y-93813015D01*
X108274880Y-93813015D01*
X108274880Y-88995041D01*
X115448086Y-88995041D01*
X115687611Y-89501134D01*
X116102577Y-89877041D01*
X116490961Y-90037904D01*
X116713000Y-89915915D01*
X116713000Y-88773000D01*
X116967000Y-88773000D01*
X116967000Y-89915915D01*
X117189039Y-90037904D01*
X117577423Y-89877041D01*
X117992389Y-89501134D01*
X118110000Y-89252633D01*
X118227611Y-89501134D01*
X118642577Y-89877041D01*
X119030961Y-90037904D01*
X119253000Y-89915915D01*
X119253000Y-88773000D01*
X119507000Y-88773000D01*
X119507000Y-89915915D01*
X119729039Y-90037904D01*
X120117423Y-89877041D01*
X120532389Y-89501134D01*
X120650000Y-89252633D01*
X120767611Y-89501134D01*
X121182577Y-89877041D01*
X121570961Y-90037904D01*
X121793000Y-89915915D01*
X121793000Y-88773000D01*
X122047000Y-88773000D01*
X122047000Y-89915915D01*
X122269039Y-90037904D01*
X122657423Y-89877041D01*
X123072389Y-89501134D01*
X123190000Y-89252633D01*
X123307611Y-89501134D01*
X123722577Y-89877041D01*
X124110961Y-90037904D01*
X124333000Y-89915915D01*
X124333000Y-88773000D01*
X124587000Y-88773000D01*
X124587000Y-89915915D01*
X124809039Y-90037904D01*
X125197423Y-89877041D01*
X125612389Y-89501134D01*
X125730000Y-89252633D01*
X125847611Y-89501134D01*
X126262577Y-89877041D01*
X126650961Y-90037904D01*
X126873000Y-89915915D01*
X126873000Y-88773000D01*
X127127000Y-88773000D01*
X127127000Y-89915915D01*
X127349039Y-90037904D01*
X127737423Y-89877041D01*
X128152389Y-89501134D01*
X128270000Y-89252633D01*
X128387611Y-89501134D01*
X128802577Y-89877041D01*
X129190961Y-90037904D01*
X129413000Y-89915915D01*
X129413000Y-88773000D01*
X127127000Y-88773000D01*
X126873000Y-88773000D01*
X124587000Y-88773000D01*
X124333000Y-88773000D01*
X122047000Y-88773000D01*
X121793000Y-88773000D01*
X119507000Y-88773000D01*
X119253000Y-88773000D01*
X116967000Y-88773000D01*
X116713000Y-88773000D01*
X115569371Y-88773000D01*
X115448086Y-88995041D01*
X108274880Y-88995041D01*
X108274880Y-79897760D01*
X114054880Y-79897760D01*
X114054880Y-87297760D01*
X114108926Y-87569465D01*
X114262834Y-87799806D01*
X114493175Y-87953714D01*
X114764880Y-88007760D01*
X115584959Y-88007760D01*
X115448086Y-88296959D01*
X115569371Y-88519000D01*
X116713000Y-88519000D01*
X116713000Y-88499000D01*
X116967000Y-88499000D01*
X116967000Y-88519000D01*
X119253000Y-88519000D01*
X119253000Y-88499000D01*
X119507000Y-88499000D01*
X119507000Y-88519000D01*
X121793000Y-88519000D01*
X121793000Y-88499000D01*
X122047000Y-88499000D01*
X122047000Y-88519000D01*
X124333000Y-88519000D01*
X124333000Y-88499000D01*
X124587000Y-88499000D01*
X124587000Y-88519000D01*
X126873000Y-88519000D01*
X126873000Y-88499000D01*
X127127000Y-88499000D01*
X127127000Y-88519000D01*
X129413000Y-88519000D01*
X129413000Y-88499000D01*
X129667000Y-88499000D01*
X129667000Y-88519000D01*
X129687000Y-88519000D01*
X129687000Y-88773000D01*
X129667000Y-88773000D01*
X129667000Y-89915915D01*
X129889039Y-90037904D01*
X130277423Y-89877041D01*
X130692389Y-89501134D01*
X130795014Y-89284297D01*
X131065302Y-89688811D01*
X131530849Y-89999880D01*
X132080000Y-90109113D01*
X132629151Y-89999880D01*
X133094698Y-89688811D01*
X133350000Y-89306725D01*
X133605302Y-89688811D01*
X134070849Y-89999880D01*
X134620000Y-90109113D01*
X135169151Y-89999880D01*
X135634698Y-89688811D01*
X135890000Y-89306725D01*
X136145302Y-89688811D01*
X136610849Y-89999880D01*
X137160000Y-90109113D01*
X137709151Y-89999880D01*
X138174698Y-89688811D01*
X138430000Y-89306725D01*
X138685302Y-89688811D01*
X139150849Y-89999880D01*
X139700000Y-90109113D01*
X140249151Y-89999880D01*
X140714698Y-89688811D01*
X140970000Y-89306725D01*
X141225302Y-89688811D01*
X141690849Y-89999880D01*
X142240000Y-90109113D01*
X142789151Y-89999880D01*
X143254698Y-89688811D01*
X143565767Y-89223264D01*
X143675000Y-88674113D01*
X143675000Y-88617887D01*
X143565767Y-88068736D01*
X143525024Y-88007760D01*
X144264880Y-88007760D01*
X144536585Y-87953714D01*
X144766926Y-87799806D01*
X144920834Y-87569465D01*
X144974880Y-87297760D01*
X144974880Y-79897760D01*
X144920834Y-79626055D01*
X144766926Y-79395714D01*
X144536585Y-79241806D01*
X144264880Y-79187760D01*
X143464978Y-79187760D01*
X143631914Y-78835041D01*
X143510629Y-78613000D01*
X142367000Y-78613000D01*
X142367000Y-78633000D01*
X142113000Y-78633000D01*
X142113000Y-78613000D01*
X142093000Y-78613000D01*
X142093000Y-78359000D01*
X142113000Y-78359000D01*
X142113000Y-77216085D01*
X142367000Y-77216085D01*
X142367000Y-78359000D01*
X143510629Y-78359000D01*
X143631914Y-78136959D01*
X143392389Y-77630866D01*
X142977423Y-77254959D01*
X142589039Y-77094096D01*
X142367000Y-77216085D01*
X142113000Y-77216085D01*
X141890961Y-77094096D01*
X141502577Y-77254959D01*
X141087611Y-77630866D01*
X140984986Y-77847703D01*
X140714698Y-77443189D01*
X140249151Y-77132120D01*
X139700000Y-77022887D01*
X139150849Y-77132120D01*
X138685302Y-77443189D01*
X138415014Y-77847703D01*
X138312389Y-77630866D01*
X137897423Y-77254959D01*
X137509039Y-77094096D01*
X137287000Y-77216085D01*
X137287000Y-78359000D01*
X137307000Y-78359000D01*
X137307000Y-78613000D01*
X137287000Y-78613000D01*
X137287000Y-78633000D01*
X137033000Y-78633000D01*
X137033000Y-78613000D01*
X134747000Y-78613000D01*
X134747000Y-78633000D01*
X134493000Y-78633000D01*
X134493000Y-78613000D01*
X132207000Y-78613000D01*
X132207000Y-78633000D01*
X131953000Y-78633000D01*
X131953000Y-78613000D01*
X129667000Y-78613000D01*
X129667000Y-78633000D01*
X129413000Y-78633000D01*
X129413000Y-78613000D01*
X127127000Y-78613000D01*
X127127000Y-78633000D01*
X126873000Y-78633000D01*
X126873000Y-78613000D01*
X124587000Y-78613000D01*
X124587000Y-78633000D01*
X124333000Y-78633000D01*
X124333000Y-78613000D01*
X122047000Y-78613000D01*
X122047000Y-78633000D01*
X121793000Y-78633000D01*
X121793000Y-78613000D01*
X119507000Y-78613000D01*
X119507000Y-78633000D01*
X119253000Y-78633000D01*
X119253000Y-78613000D01*
X116967000Y-78613000D01*
X116967000Y-78633000D01*
X116713000Y-78633000D01*
X116713000Y-78613000D01*
X115569371Y-78613000D01*
X115448086Y-78835041D01*
X115615022Y-79187760D01*
X114764880Y-79187760D01*
X114493175Y-79241806D01*
X114262834Y-79395714D01*
X114108926Y-79626055D01*
X114054880Y-79897760D01*
X108274880Y-79897760D01*
X108274880Y-78240844D01*
X108986727Y-78953934D01*
X110138554Y-79432214D01*
X111385734Y-79433303D01*
X112538395Y-78957033D01*
X113359901Y-78136959D01*
X115448086Y-78136959D01*
X115569371Y-78359000D01*
X116713000Y-78359000D01*
X116713000Y-77216085D01*
X116967000Y-77216085D01*
X116967000Y-78359000D01*
X119253000Y-78359000D01*
X119253000Y-77216085D01*
X119507000Y-77216085D01*
X119507000Y-78359000D01*
X121793000Y-78359000D01*
X121793000Y-77216085D01*
X122047000Y-77216085D01*
X122047000Y-78359000D01*
X124333000Y-78359000D01*
X124333000Y-77216085D01*
X124587000Y-77216085D01*
X124587000Y-78359000D01*
X126873000Y-78359000D01*
X126873000Y-77216085D01*
X127127000Y-77216085D01*
X127127000Y-78359000D01*
X129413000Y-78359000D01*
X129413000Y-77216085D01*
X129667000Y-77216085D01*
X129667000Y-78359000D01*
X131953000Y-78359000D01*
X131953000Y-77216085D01*
X132207000Y-77216085D01*
X132207000Y-78359000D01*
X134493000Y-78359000D01*
X134493000Y-77216085D01*
X134747000Y-77216085D01*
X134747000Y-78359000D01*
X137033000Y-78359000D01*
X137033000Y-77216085D01*
X136810961Y-77094096D01*
X136422577Y-77254959D01*
X136007611Y-77630866D01*
X135890000Y-77879367D01*
X135772389Y-77630866D01*
X135357423Y-77254959D01*
X134969039Y-77094096D01*
X134747000Y-77216085D01*
X134493000Y-77216085D01*
X134270961Y-77094096D01*
X133882577Y-77254959D01*
X133467611Y-77630866D01*
X133350000Y-77879367D01*
X133232389Y-77630866D01*
X132817423Y-77254959D01*
X132429039Y-77094096D01*
X132207000Y-77216085D01*
X131953000Y-77216085D01*
X131730961Y-77094096D01*
X131342577Y-77254959D01*
X130927611Y-77630866D01*
X130810000Y-77879367D01*
X130692389Y-77630866D01*
X130277423Y-77254959D01*
X129889039Y-77094096D01*
X129667000Y-77216085D01*
X129413000Y-77216085D01*
X129190961Y-77094096D01*
X128802577Y-77254959D01*
X128387611Y-77630866D01*
X128270000Y-77879367D01*
X128152389Y-77630866D01*
X127737423Y-77254959D01*
X127349039Y-77094096D01*
X127127000Y-77216085D01*
X126873000Y-77216085D01*
X126650961Y-77094096D01*
X126262577Y-77254959D01*
X125847611Y-77630866D01*
X125730000Y-77879367D01*
X125612389Y-77630866D01*
X125197423Y-77254959D01*
X124809039Y-77094096D01*
X124587000Y-77216085D01*
X124333000Y-77216085D01*
X124110961Y-77094096D01*
X123722577Y-77254959D01*
X123307611Y-77630866D01*
X123190000Y-77879367D01*
X123072389Y-77630866D01*
X122657423Y-77254959D01*
X122269039Y-77094096D01*
X122047000Y-77216085D01*
X121793000Y-77216085D01*
X121570961Y-77094096D01*
X121182577Y-77254959D01*
X120767611Y-77630866D01*
X120650000Y-77879367D01*
X120532389Y-77630866D01*
X120117423Y-77254959D01*
X119729039Y-77094096D01*
X119507000Y-77216085D01*
X119253000Y-77216085D01*
X119030961Y-77094096D01*
X118642577Y-77254959D01*
X118227611Y-77630866D01*
X118110000Y-77879367D01*
X117992389Y-77630866D01*
X117577423Y-77254959D01*
X117189039Y-77094096D01*
X116967000Y-77216085D01*
X116713000Y-77216085D01*
X116490961Y-77094096D01*
X116102577Y-77254959D01*
X115687611Y-77630866D01*
X115448086Y-78136959D01*
X113359901Y-78136959D01*
X113421054Y-78075913D01*
X113899334Y-76924086D01*
X113900423Y-75676906D01*
X113424153Y-74524245D01*
X112708917Y-73807760D01*
X146421796Y-73807760D01*
X145708706Y-74519607D01*
X145708706Y-74519607D01*
G37*
X145708706Y-74519607D02*
X145230426Y-75671434D01*
X145229337Y-76918614D01*
X145705607Y-78071275D01*
X146586727Y-78953934D01*
X147738554Y-79432214D01*
X148985734Y-79433303D01*
X150138395Y-78957033D01*
X150854880Y-78241797D01*
X150854880Y-97554676D01*
X150143033Y-96841586D01*
X148991206Y-96363306D01*
X147744026Y-96362217D01*
X146591365Y-96838487D01*
X145708706Y-97719607D01*
X145230426Y-98871434D01*
X145229337Y-100118614D01*
X145705607Y-101271275D01*
X146420843Y-101987760D01*
X112707964Y-101987760D01*
X113421054Y-101275913D01*
X113899334Y-100124086D01*
X113900423Y-98876906D01*
X113424153Y-97724245D01*
X112543033Y-96841586D01*
X111391206Y-96363306D01*
X110144026Y-96362217D01*
X108991365Y-96838487D01*
X108274880Y-97553723D01*
X108274880Y-93813015D01*
X111966280Y-93813015D01*
X111966280Y-94182505D01*
X112080354Y-94755994D01*
X112405210Y-95242175D01*
X112891391Y-95567031D01*
X113464880Y-95681105D01*
X114038369Y-95567031D01*
X114524550Y-95242175D01*
X114731341Y-94932691D01*
X115102844Y-95348492D01*
X115630089Y-95602469D01*
X115645854Y-95605118D01*
X115877880Y-95483977D01*
X115877880Y-94124760D01*
X115857880Y-94124760D01*
X115857880Y-93870760D01*
X115877880Y-93870760D01*
X115877880Y-92511543D01*
X116131880Y-92511543D01*
X116131880Y-93870760D01*
X116151880Y-93870760D01*
X116151880Y-94124760D01*
X116131880Y-94124760D01*
X116131880Y-95483977D01*
X116363906Y-95605118D01*
X116379671Y-95602469D01*
X116906916Y-95348492D01*
X117278419Y-94932691D01*
X117485210Y-95242175D01*
X117669511Y-95365321D01*
X117697934Y-98207666D01*
X117655042Y-98310961D01*
X117654718Y-98682927D01*
X117796763Y-99026703D01*
X118059553Y-99289952D01*
X118403081Y-99432598D01*
X118775047Y-99432922D01*
X119118823Y-99290877D01*
X119382072Y-99028087D01*
X119524718Y-98684559D01*
X119525042Y-98312593D01*
X119475884Y-98193620D01*
X119447419Y-95347167D01*
X119604550Y-95242175D01*
X119814880Y-94927394D01*
X120025210Y-95242175D01*
X120511391Y-95567031D01*
X121084880Y-95681105D01*
X121658369Y-95567031D01*
X122144550Y-95242175D01*
X122354880Y-94927394D01*
X122565210Y-95242175D01*
X123051391Y-95567031D01*
X123624880Y-95681105D01*
X124198369Y-95567031D01*
X124684550Y-95242175D01*
X124694123Y-95227847D01*
X124698118Y-95249077D01*
X124837190Y-95465201D01*
X125049390Y-95610191D01*
X125301280Y-95661200D01*
X127028480Y-95661200D01*
X127263797Y-95616922D01*
X127479921Y-95477850D01*
X127624911Y-95265650D01*
X127675920Y-95013760D01*
X127675920Y-92981760D01*
X127631642Y-92746443D01*
X127492570Y-92530319D01*
X127280370Y-92385329D01*
X127028480Y-92334320D01*
X125301280Y-92334320D01*
X125065963Y-92378598D01*
X124849839Y-92517670D01*
X124704849Y-92729870D01*
X124696480Y-92771199D01*
X124684550Y-92753345D01*
X124198369Y-92428489D01*
X123624880Y-92314415D01*
X123051391Y-92428489D01*
X122565210Y-92753345D01*
X122354880Y-93068126D01*
X122144550Y-92753345D01*
X121658369Y-92428489D01*
X121084880Y-92314415D01*
X120511391Y-92428489D01*
X120025210Y-92753345D01*
X119814880Y-93068126D01*
X119604550Y-92753345D01*
X119118369Y-92428489D01*
X118544880Y-92314415D01*
X117971391Y-92428489D01*
X117485210Y-92753345D01*
X117278419Y-93062829D01*
X116906916Y-92647028D01*
X116379671Y-92393051D01*
X116363906Y-92390402D01*
X116131880Y-92511543D01*
X115877880Y-92511543D01*
X115645854Y-92390402D01*
X115630089Y-92393051D01*
X115102844Y-92647028D01*
X114731341Y-93062829D01*
X114524550Y-92753345D01*
X114038369Y-92428489D01*
X113464880Y-92314415D01*
X112891391Y-92428489D01*
X112405210Y-92753345D01*
X112080354Y-93239526D01*
X111966280Y-93813015D01*
X108274880Y-93813015D01*
X108274880Y-88995041D01*
X115448086Y-88995041D01*
X115687611Y-89501134D01*
X116102577Y-89877041D01*
X116490961Y-90037904D01*
X116713000Y-89915915D01*
X116713000Y-88773000D01*
X116967000Y-88773000D01*
X116967000Y-89915915D01*
X117189039Y-90037904D01*
X117577423Y-89877041D01*
X117992389Y-89501134D01*
X118110000Y-89252633D01*
X118227611Y-89501134D01*
X118642577Y-89877041D01*
X119030961Y-90037904D01*
X119253000Y-89915915D01*
X119253000Y-88773000D01*
X119507000Y-88773000D01*
X119507000Y-89915915D01*
X119729039Y-90037904D01*
X120117423Y-89877041D01*
X120532389Y-89501134D01*
X120650000Y-89252633D01*
X120767611Y-89501134D01*
X121182577Y-89877041D01*
X121570961Y-90037904D01*
X121793000Y-89915915D01*
X121793000Y-88773000D01*
X122047000Y-88773000D01*
X122047000Y-89915915D01*
X122269039Y-90037904D01*
X122657423Y-89877041D01*
X123072389Y-89501134D01*
X123190000Y-89252633D01*
X123307611Y-89501134D01*
X123722577Y-89877041D01*
X124110961Y-90037904D01*
X124333000Y-89915915D01*
X124333000Y-88773000D01*
X124587000Y-88773000D01*
X124587000Y-89915915D01*
X124809039Y-90037904D01*
X125197423Y-89877041D01*
X125612389Y-89501134D01*
X125730000Y-89252633D01*
X125847611Y-89501134D01*
X126262577Y-89877041D01*
X126650961Y-90037904D01*
X126873000Y-89915915D01*
X126873000Y-88773000D01*
X127127000Y-88773000D01*
X127127000Y-89915915D01*
X127349039Y-90037904D01*
X127737423Y-89877041D01*
X128152389Y-89501134D01*
X128270000Y-89252633D01*
X128387611Y-89501134D01*
X128802577Y-89877041D01*
X129190961Y-90037904D01*
X129413000Y-89915915D01*
X129413000Y-88773000D01*
X127127000Y-88773000D01*
X126873000Y-88773000D01*
X124587000Y-88773000D01*
X124333000Y-88773000D01*
X122047000Y-88773000D01*
X121793000Y-88773000D01*
X119507000Y-88773000D01*
X119253000Y-88773000D01*
X116967000Y-88773000D01*
X116713000Y-88773000D01*
X115569371Y-88773000D01*
X115448086Y-88995041D01*
X108274880Y-88995041D01*
X108274880Y-79897760D01*
X114054880Y-79897760D01*
X114054880Y-87297760D01*
X114108926Y-87569465D01*
X114262834Y-87799806D01*
X114493175Y-87953714D01*
X114764880Y-88007760D01*
X115584959Y-88007760D01*
X115448086Y-88296959D01*
X115569371Y-88519000D01*
X116713000Y-88519000D01*
X116713000Y-88499000D01*
X116967000Y-88499000D01*
X116967000Y-88519000D01*
X119253000Y-88519000D01*
X119253000Y-88499000D01*
X119507000Y-88499000D01*
X119507000Y-88519000D01*
X121793000Y-88519000D01*
X121793000Y-88499000D01*
X122047000Y-88499000D01*
X122047000Y-88519000D01*
X124333000Y-88519000D01*
X124333000Y-88499000D01*
X124587000Y-88499000D01*
X124587000Y-88519000D01*
X126873000Y-88519000D01*
X126873000Y-88499000D01*
X127127000Y-88499000D01*
X127127000Y-88519000D01*
X129413000Y-88519000D01*
X129413000Y-88499000D01*
X129667000Y-88499000D01*
X129667000Y-88519000D01*
X129687000Y-88519000D01*
X129687000Y-88773000D01*
X129667000Y-88773000D01*
X129667000Y-89915915D01*
X129889039Y-90037904D01*
X130277423Y-89877041D01*
X130692389Y-89501134D01*
X130795014Y-89284297D01*
X131065302Y-89688811D01*
X131530849Y-89999880D01*
X132080000Y-90109113D01*
X132629151Y-89999880D01*
X133094698Y-89688811D01*
X133350000Y-89306725D01*
X133605302Y-89688811D01*
X134070849Y-89999880D01*
X134620000Y-90109113D01*
X135169151Y-89999880D01*
X135634698Y-89688811D01*
X135890000Y-89306725D01*
X136145302Y-89688811D01*
X136610849Y-89999880D01*
X137160000Y-90109113D01*
X137709151Y-89999880D01*
X138174698Y-89688811D01*
X138430000Y-89306725D01*
X138685302Y-89688811D01*
X139150849Y-89999880D01*
X139700000Y-90109113D01*
X140249151Y-89999880D01*
X140714698Y-89688811D01*
X140970000Y-89306725D01*
X141225302Y-89688811D01*
X141690849Y-89999880D01*
X142240000Y-90109113D01*
X142789151Y-89999880D01*
X143254698Y-89688811D01*
X143565767Y-89223264D01*
X143675000Y-88674113D01*
X143675000Y-88617887D01*
X143565767Y-88068736D01*
X143525024Y-88007760D01*
X144264880Y-88007760D01*
X144536585Y-87953714D01*
X144766926Y-87799806D01*
X144920834Y-87569465D01*
X144974880Y-87297760D01*
X144974880Y-79897760D01*
X144920834Y-79626055D01*
X144766926Y-79395714D01*
X144536585Y-79241806D01*
X144264880Y-79187760D01*
X143464978Y-79187760D01*
X143631914Y-78835041D01*
X143510629Y-78613000D01*
X142367000Y-78613000D01*
X142367000Y-78633000D01*
X142113000Y-78633000D01*
X142113000Y-78613000D01*
X142093000Y-78613000D01*
X142093000Y-78359000D01*
X142113000Y-78359000D01*
X142113000Y-77216085D01*
X142367000Y-77216085D01*
X142367000Y-78359000D01*
X143510629Y-78359000D01*
X143631914Y-78136959D01*
X143392389Y-77630866D01*
X142977423Y-77254959D01*
X142589039Y-77094096D01*
X142367000Y-77216085D01*
X142113000Y-77216085D01*
X141890961Y-77094096D01*
X141502577Y-77254959D01*
X141087611Y-77630866D01*
X140984986Y-77847703D01*
X140714698Y-77443189D01*
X140249151Y-77132120D01*
X139700000Y-77022887D01*
X139150849Y-77132120D01*
X138685302Y-77443189D01*
X138415014Y-77847703D01*
X138312389Y-77630866D01*
X137897423Y-77254959D01*
X137509039Y-77094096D01*
X137287000Y-77216085D01*
X137287000Y-78359000D01*
X137307000Y-78359000D01*
X137307000Y-78613000D01*
X137287000Y-78613000D01*
X137287000Y-78633000D01*
X137033000Y-78633000D01*
X137033000Y-78613000D01*
X134747000Y-78613000D01*
X134747000Y-78633000D01*
X134493000Y-78633000D01*
X134493000Y-78613000D01*
X132207000Y-78613000D01*
X132207000Y-78633000D01*
X131953000Y-78633000D01*
X131953000Y-78613000D01*
X129667000Y-78613000D01*
X129667000Y-78633000D01*
X129413000Y-78633000D01*
X129413000Y-78613000D01*
X127127000Y-78613000D01*
X127127000Y-78633000D01*
X126873000Y-78633000D01*
X126873000Y-78613000D01*
X124587000Y-78613000D01*
X124587000Y-78633000D01*
X124333000Y-78633000D01*
X124333000Y-78613000D01*
X122047000Y-78613000D01*
X122047000Y-78633000D01*
X121793000Y-78633000D01*
X121793000Y-78613000D01*
X119507000Y-78613000D01*
X119507000Y-78633000D01*
X119253000Y-78633000D01*
X119253000Y-78613000D01*
X116967000Y-78613000D01*
X116967000Y-78633000D01*
X116713000Y-78633000D01*
X116713000Y-78613000D01*
X115569371Y-78613000D01*
X115448086Y-78835041D01*
X115615022Y-79187760D01*
X114764880Y-79187760D01*
X114493175Y-79241806D01*
X114262834Y-79395714D01*
X114108926Y-79626055D01*
X114054880Y-79897760D01*
X108274880Y-79897760D01*
X108274880Y-78240844D01*
X108986727Y-78953934D01*
X110138554Y-79432214D01*
X111385734Y-79433303D01*
X112538395Y-78957033D01*
X113359901Y-78136959D01*
X115448086Y-78136959D01*
X115569371Y-78359000D01*
X116713000Y-78359000D01*
X116713000Y-77216085D01*
X116967000Y-77216085D01*
X116967000Y-78359000D01*
X119253000Y-78359000D01*
X119253000Y-77216085D01*
X119507000Y-77216085D01*
X119507000Y-78359000D01*
X121793000Y-78359000D01*
X121793000Y-77216085D01*
X122047000Y-77216085D01*
X122047000Y-78359000D01*
X124333000Y-78359000D01*
X124333000Y-77216085D01*
X124587000Y-77216085D01*
X124587000Y-78359000D01*
X126873000Y-78359000D01*
X126873000Y-77216085D01*
X127127000Y-77216085D01*
X127127000Y-78359000D01*
X129413000Y-78359000D01*
X129413000Y-77216085D01*
X129667000Y-77216085D01*
X129667000Y-78359000D01*
X131953000Y-78359000D01*
X131953000Y-77216085D01*
X132207000Y-77216085D01*
X132207000Y-78359000D01*
X134493000Y-78359000D01*
X134493000Y-77216085D01*
X134747000Y-77216085D01*
X134747000Y-78359000D01*
X137033000Y-78359000D01*
X137033000Y-77216085D01*
X136810961Y-77094096D01*
X136422577Y-77254959D01*
X136007611Y-77630866D01*
X135890000Y-77879367D01*
X135772389Y-77630866D01*
X135357423Y-77254959D01*
X134969039Y-77094096D01*
X134747000Y-77216085D01*
X134493000Y-77216085D01*
X134270961Y-77094096D01*
X133882577Y-77254959D01*
X133467611Y-77630866D01*
X133350000Y-77879367D01*
X133232389Y-77630866D01*
X132817423Y-77254959D01*
X132429039Y-77094096D01*
X132207000Y-77216085D01*
X131953000Y-77216085D01*
X131730961Y-77094096D01*
X131342577Y-77254959D01*
X130927611Y-77630866D01*
X130810000Y-77879367D01*
X130692389Y-77630866D01*
X130277423Y-77254959D01*
X129889039Y-77094096D01*
X129667000Y-77216085D01*
X129413000Y-77216085D01*
X129190961Y-77094096D01*
X128802577Y-77254959D01*
X128387611Y-77630866D01*
X128270000Y-77879367D01*
X128152389Y-77630866D01*
X127737423Y-77254959D01*
X127349039Y-77094096D01*
X127127000Y-77216085D01*
X126873000Y-77216085D01*
X126650961Y-77094096D01*
X126262577Y-77254959D01*
X125847611Y-77630866D01*
X125730000Y-77879367D01*
X125612389Y-77630866D01*
X125197423Y-77254959D01*
X124809039Y-77094096D01*
X124587000Y-77216085D01*
X124333000Y-77216085D01*
X124110961Y-77094096D01*
X123722577Y-77254959D01*
X123307611Y-77630866D01*
X123190000Y-77879367D01*
X123072389Y-77630866D01*
X122657423Y-77254959D01*
X122269039Y-77094096D01*
X122047000Y-77216085D01*
X121793000Y-77216085D01*
X121570961Y-77094096D01*
X121182577Y-77254959D01*
X120767611Y-77630866D01*
X120650000Y-77879367D01*
X120532389Y-77630866D01*
X120117423Y-77254959D01*
X119729039Y-77094096D01*
X119507000Y-77216085D01*
X119253000Y-77216085D01*
X119030961Y-77094096D01*
X118642577Y-77254959D01*
X118227611Y-77630866D01*
X118110000Y-77879367D01*
X117992389Y-77630866D01*
X117577423Y-77254959D01*
X117189039Y-77094096D01*
X116967000Y-77216085D01*
X116713000Y-77216085D01*
X116490961Y-77094096D01*
X116102577Y-77254959D01*
X115687611Y-77630866D01*
X115448086Y-78136959D01*
X113359901Y-78136959D01*
X113421054Y-78075913D01*
X113899334Y-76924086D01*
X113900423Y-75676906D01*
X113424153Y-74524245D01*
X112708917Y-73807760D01*
X146421796Y-73807760D01*
X145708706Y-74519607D01*
M02*
