M48
;DRILL file {KiCad 4.0.5+dfsg1-4} date Wed Oct 11 14:54:38 2017
;FORMAT={-:-/ absolute / inch / decimal}
FMAT,2
INCH,TZ
T1C0.016
T2C0.031
T3C0.040
T4C0.126
%
G90
G05
M72
T1
X4.6285Y-3.9684
X4.6689Y-3.8779
X4.9868Y-3.8385
X5.3913Y-3.9684
X5.5341Y-3.9645
X5.7545Y-3.5806
T2
X4.6Y-3.09
X4.6Y-3.49
X4.7Y-3.09
X4.7Y-3.49
X4.8Y-3.09
X4.8Y-3.49
X4.9Y-3.09
X4.9Y-3.49
X5.Y-3.09
X5.Y-3.49
X5.1Y-3.09
X5.1Y-3.49
X5.2Y-3.09
X5.2Y-3.49
X5.3Y-3.09
X5.3Y-3.49
X5.4Y-3.09
X5.4Y-3.49
X5.5Y-3.09
X5.5Y-3.49
X5.6Y-3.09
X5.6Y-3.49
T3
X4.4671Y-3.7007
X4.5671Y-3.7007
X4.6671Y-3.7007
X4.7671Y-3.7007
X4.8671Y-3.7007
X4.9671Y-3.7007
T4
X4.3608Y-3.0038
X4.3608Y-3.9172
X5.8411Y-3.0038
X5.8411Y-3.9172
T0
M30
