G04 #@! TF.FileFunction,Legend,Top*
%FSLAX46Y46*%
G04 Gerber Fmt 4.6, Leading zero omitted, Abs format (unit mm)*
G04 Created by KiCad (PCBNEW 4.0.5+dfsg1-4) date Wed Oct 11 14:54:32 2017*
%MOMM*%
%LPD*%
G01*
G04 APERTURE LIST*
%ADD10C,0.100000*%
%ADD11C,0.150000*%
%ADD12C,0.120000*%
G04 APERTURE END LIST*
D10*
D11*
X141414880Y-98397760D02*
X141414880Y-97397760D01*
X139714880Y-97397760D02*
X139714880Y-98397760D01*
X123764880Y-101647760D02*
X124764880Y-101647760D01*
X124764880Y-99947760D02*
X123764880Y-99947760D01*
X123914880Y-96472760D02*
X121914880Y-96472760D01*
X121914880Y-98522760D02*
X123914880Y-98522760D01*
X124894880Y-95267760D02*
X112194880Y-95267760D01*
X112194880Y-95267760D02*
X112194880Y-92727760D01*
X112194880Y-92727760D02*
X124894880Y-92727760D01*
X127714880Y-95547760D02*
X126164880Y-95547760D01*
X124894880Y-95267760D02*
X124894880Y-92727760D01*
X126164880Y-92447760D02*
X127714880Y-92447760D01*
X127714880Y-92447760D02*
X127714880Y-95547760D01*
D12*
X132336000Y-73604000D02*
X132336000Y-74534000D01*
X132336000Y-76764000D02*
X132336000Y-75834000D01*
X132336000Y-76764000D02*
X135496000Y-76764000D01*
X132336000Y-73604000D02*
X133796000Y-73604000D01*
D11*
X134689880Y-101672760D02*
X133489880Y-101672760D01*
X133489880Y-99922760D02*
X134689880Y-99922760D01*
X129739880Y-101672760D02*
X128539880Y-101672760D01*
X128539880Y-99922760D02*
X129739880Y-99922760D01*
X116364880Y-97972760D02*
X115164880Y-97972760D01*
X115164880Y-96222760D02*
X116364880Y-96222760D01*
X138979200Y-76922600D02*
X137779200Y-76922600D01*
X137779200Y-75172600D02*
X138979200Y-75172600D01*
X127162000Y-75325000D02*
X128362000Y-75325000D01*
X128362000Y-77075000D02*
X127162000Y-77075000D01*
D12*
X118964880Y-102507760D02*
X120764880Y-102507760D01*
X120764880Y-99287760D02*
X118314880Y-99287760D01*
D11*
X139070000Y-91905000D02*
X139045000Y-91905000D01*
X139070000Y-96055000D02*
X138955000Y-96055000D01*
X130170000Y-96055000D02*
X130285000Y-96055000D01*
X130170000Y-91905000D02*
X130285000Y-91905000D01*
X139070000Y-91905000D02*
X139070000Y-96055000D01*
X130170000Y-91905000D02*
X130170000Y-96055000D01*
X139045000Y-91905000D02*
X139045000Y-90530000D01*
X143010000Y-91883600D02*
X144010000Y-91883600D01*
X144010000Y-90183600D02*
X143010000Y-90183600D01*
X113050880Y-76297760D02*
G75*
G03X113050880Y-76297760I-2286000J0D01*
G01*
X150650880Y-76297760D02*
G75*
G03X150650880Y-76297760I-2286000J0D01*
G01*
X113050880Y-99497760D02*
G75*
G03X113050880Y-99497760I-2286000J0D01*
G01*
X150650880Y-99497760D02*
G75*
G03X150650880Y-99497760I-2286000J0D01*
G01*
M02*
