G04 #@! TF.FileFunction,Legend,Top*
%FSLAX46Y46*%
G04 Gerber Fmt 4.6, Leading zero omitted, Abs format (unit mm)*
G04 Created by KiCad (PCBNEW 4.0.5+dfsg1-4) date Wed Oct 11 15:00:53 2017*
%MOMM*%
%LPD*%
G01*
G04 APERTURE LIST*
%ADD10C,0.100000*%
%ADD11C,0.150000*%
%ADD12C,0.120000*%
G04 APERTURE END LIST*
D10*
D11*
X141414880Y-98397760D02*
X141414880Y-97397760D01*
X139714880Y-97397760D02*
X139714880Y-98397760D01*
X123764880Y-101647760D02*
X124764880Y-101647760D01*
X124764880Y-99947760D02*
X123764880Y-99947760D01*
X123914880Y-96472760D02*
X121914880Y-96472760D01*
X121914880Y-98522760D02*
X123914880Y-98522760D01*
X124894880Y-95267760D02*
X112194880Y-95267760D01*
X112194880Y-95267760D02*
X112194880Y-92727760D01*
X112194880Y-92727760D02*
X124894880Y-92727760D01*
X127714880Y-95547760D02*
X126164880Y-95547760D01*
X124894880Y-95267760D02*
X124894880Y-92727760D01*
X126164880Y-92447760D02*
X127714880Y-92447760D01*
X127714880Y-92447760D02*
X127714880Y-95547760D01*
D12*
X132336000Y-73604000D02*
X132336000Y-74534000D01*
X132336000Y-76764000D02*
X132336000Y-75834000D01*
X132336000Y-76764000D02*
X135496000Y-76764000D01*
X132336000Y-73604000D02*
X133796000Y-73604000D01*
D11*
X134689880Y-101672760D02*
X133489880Y-101672760D01*
X133489880Y-99922760D02*
X134689880Y-99922760D01*
X129739880Y-101672760D02*
X128539880Y-101672760D01*
X128539880Y-99922760D02*
X129739880Y-99922760D01*
X116364880Y-97972760D02*
X115164880Y-97972760D01*
X115164880Y-96222760D02*
X116364880Y-96222760D01*
X138979200Y-76922600D02*
X137779200Y-76922600D01*
X137779200Y-75172600D02*
X138979200Y-75172600D01*
X127162000Y-75325000D02*
X128362000Y-75325000D01*
X128362000Y-77075000D02*
X127162000Y-77075000D01*
D12*
X118964880Y-102507760D02*
X120764880Y-102507760D01*
X120764880Y-99287760D02*
X118314880Y-99287760D01*
D11*
X139070000Y-91905000D02*
X139045000Y-91905000D01*
X139070000Y-96055000D02*
X138955000Y-96055000D01*
X130170000Y-96055000D02*
X130285000Y-96055000D01*
X130170000Y-91905000D02*
X130285000Y-91905000D01*
X139070000Y-91905000D02*
X139070000Y-96055000D01*
X130170000Y-91905000D02*
X130170000Y-96055000D01*
X139045000Y-91905000D02*
X139045000Y-90530000D01*
X143010000Y-91883600D02*
X144010000Y-91883600D01*
X144010000Y-90183600D02*
X143010000Y-90183600D01*
X113050880Y-76297760D02*
G75*
G03X113050880Y-76297760I-2286000J0D01*
G01*
X150650880Y-76297760D02*
G75*
G03X150650880Y-76297760I-2286000J0D01*
G01*
X113050880Y-99497760D02*
G75*
G03X113050880Y-99497760I-2286000J0D01*
G01*
X150650880Y-99497760D02*
G75*
G03X150650880Y-99497760I-2286000J0D01*
G01*
X141617261Y-99540617D02*
X141617261Y-99445378D01*
X141664880Y-99350140D01*
X141712499Y-99302521D01*
X141807737Y-99254902D01*
X141998213Y-99207283D01*
X142236309Y-99207283D01*
X142426785Y-99254902D01*
X142522023Y-99302521D01*
X142569642Y-99350140D01*
X142617261Y-99445378D01*
X142617261Y-99540617D01*
X142569642Y-99635855D01*
X142522023Y-99683474D01*
X142426785Y-99731093D01*
X142236309Y-99778712D01*
X141998213Y-99778712D01*
X141807737Y-99731093D01*
X141712499Y-99683474D01*
X141664880Y-99635855D01*
X141617261Y-99540617D01*
X142522023Y-98778712D02*
X142569642Y-98731093D01*
X142617261Y-98778712D01*
X142569642Y-98826331D01*
X142522023Y-98778712D01*
X142617261Y-98778712D01*
X142617261Y-97778712D02*
X142617261Y-98350141D01*
X142617261Y-98064427D02*
X141617261Y-98064427D01*
X141760118Y-98159665D01*
X141855356Y-98254903D01*
X141902975Y-98350141D01*
X141950594Y-96921569D02*
X142617261Y-96921569D01*
X141950594Y-97350141D02*
X142474404Y-97350141D01*
X142569642Y-97302522D01*
X142617261Y-97207284D01*
X142617261Y-97064426D01*
X142569642Y-96969188D01*
X142522023Y-96921569D01*
X142093451Y-96112045D02*
X142093451Y-96445379D01*
X142617261Y-96445379D02*
X141617261Y-96445379D01*
X141617261Y-95969188D01*
X123193452Y-99850141D02*
X122622023Y-99850141D01*
X122907737Y-99850141D02*
X122907737Y-98850141D01*
X122812499Y-98992998D01*
X122717261Y-99088236D01*
X122622023Y-99135855D01*
X123812499Y-98850141D02*
X123907738Y-98850141D01*
X124002976Y-98897760D01*
X124050595Y-98945379D01*
X124098214Y-99040617D01*
X124145833Y-99231093D01*
X124145833Y-99469189D01*
X124098214Y-99659665D01*
X124050595Y-99754903D01*
X124002976Y-99802522D01*
X123907738Y-99850141D01*
X123812499Y-99850141D01*
X123717261Y-99802522D01*
X123669642Y-99754903D01*
X123622023Y-99659665D01*
X123574404Y-99469189D01*
X123574404Y-99231093D01*
X123622023Y-99040617D01*
X123669642Y-98945379D01*
X123717261Y-98897760D01*
X123812499Y-98850141D01*
X124574404Y-99183474D02*
X124574404Y-99850141D01*
X124574404Y-99278712D02*
X124622023Y-99231093D01*
X124717261Y-99183474D01*
X124860119Y-99183474D01*
X124955357Y-99231093D01*
X125002976Y-99326331D01*
X125002976Y-99850141D01*
X125812500Y-99326331D02*
X125479166Y-99326331D01*
X125479166Y-99850141D02*
X125479166Y-98850141D01*
X125955357Y-98850141D01*
X121843452Y-96350141D02*
X121272023Y-96350141D01*
X121557737Y-96350141D02*
X121557737Y-95350141D01*
X121462499Y-95492998D01*
X121367261Y-95588236D01*
X121272023Y-95635855D01*
X122462499Y-95350141D02*
X122557738Y-95350141D01*
X122652976Y-95397760D01*
X122700595Y-95445379D01*
X122748214Y-95540617D01*
X122795833Y-95731093D01*
X122795833Y-95969189D01*
X122748214Y-96159665D01*
X122700595Y-96254903D01*
X122652976Y-96302522D01*
X122557738Y-96350141D01*
X122462499Y-96350141D01*
X122367261Y-96302522D01*
X122319642Y-96254903D01*
X122272023Y-96159665D01*
X122224404Y-95969189D01*
X122224404Y-95731093D01*
X122272023Y-95540617D01*
X122319642Y-95445379D01*
X122367261Y-95397760D01*
X122462499Y-95350141D01*
X123652976Y-95683474D02*
X123652976Y-96350141D01*
X123224404Y-95683474D02*
X123224404Y-96207284D01*
X123272023Y-96302522D01*
X123367261Y-96350141D01*
X123510119Y-96350141D01*
X123605357Y-96302522D01*
X123652976Y-96254903D01*
X124462500Y-95826331D02*
X124129166Y-95826331D01*
X124129166Y-96350141D02*
X124129166Y-95350141D01*
X124605357Y-95350141D01*
X133494642Y-99650141D02*
X132923213Y-99650141D01*
X133208927Y-99650141D02*
X133208927Y-98650141D01*
X133113689Y-98792998D01*
X133018451Y-98888236D01*
X132923213Y-98935855D01*
X133923213Y-99650141D02*
X133923213Y-98650141D01*
X134018451Y-99269189D02*
X134304166Y-99650141D01*
X134304166Y-98983474D02*
X133923213Y-99364427D01*
X134685118Y-98745379D02*
X134732737Y-98697760D01*
X134827975Y-98650141D01*
X135066071Y-98650141D01*
X135161309Y-98697760D01*
X135208928Y-98745379D01*
X135256547Y-98840617D01*
X135256547Y-98935855D01*
X135208928Y-99078712D01*
X134637499Y-99650141D01*
X135256547Y-99650141D01*
X127973213Y-98745379D02*
X128020832Y-98697760D01*
X128116070Y-98650141D01*
X128354166Y-98650141D01*
X128449404Y-98697760D01*
X128497023Y-98745379D01*
X128544642Y-98840617D01*
X128544642Y-98935855D01*
X128497023Y-99078712D01*
X127925594Y-99650141D01*
X128544642Y-99650141D01*
X128973213Y-99650141D02*
X128973213Y-98650141D01*
X129068451Y-99269189D02*
X129354166Y-99650141D01*
X129354166Y-98983474D02*
X128973213Y-99364427D01*
X129687499Y-98650141D02*
X130354166Y-98650141D01*
X129925594Y-99650141D01*
X114598213Y-98745379D02*
X114645832Y-98697760D01*
X114741070Y-98650141D01*
X114979166Y-98650141D01*
X115074404Y-98697760D01*
X115122023Y-98745379D01*
X115169642Y-98840617D01*
X115169642Y-98935855D01*
X115122023Y-99078712D01*
X114550594Y-99650141D01*
X115169642Y-99650141D01*
X115598213Y-99650141D02*
X115598213Y-98650141D01*
X115693451Y-99269189D02*
X115979166Y-99650141D01*
X115979166Y-98983474D02*
X115598213Y-99364427D01*
X116360118Y-98745379D02*
X116407737Y-98697760D01*
X116502975Y-98650141D01*
X116741071Y-98650141D01*
X116836309Y-98697760D01*
X116883928Y-98745379D01*
X116931547Y-98840617D01*
X116931547Y-98935855D01*
X116883928Y-99078712D01*
X116312499Y-99650141D01*
X116931547Y-99650141D01*
X137212534Y-74899981D02*
X136641105Y-74899981D01*
X136926819Y-74899981D02*
X136926819Y-73899981D01*
X136831581Y-74042838D01*
X136736343Y-74138076D01*
X136641105Y-74185695D01*
X138117296Y-73899981D02*
X137641105Y-73899981D01*
X137593486Y-74376171D01*
X137641105Y-74328552D01*
X137736343Y-74280933D01*
X137974439Y-74280933D01*
X138069677Y-74328552D01*
X138117296Y-74376171D01*
X138164915Y-74471410D01*
X138164915Y-74709505D01*
X138117296Y-74804743D01*
X138069677Y-74852362D01*
X137974439Y-74899981D01*
X137736343Y-74899981D01*
X137641105Y-74852362D01*
X137593486Y-74804743D01*
X138783962Y-73899981D02*
X138879201Y-73899981D01*
X138974439Y-73947600D01*
X139022058Y-73995219D01*
X139069677Y-74090457D01*
X139117296Y-74280933D01*
X139117296Y-74519029D01*
X139069677Y-74709505D01*
X139022058Y-74804743D01*
X138974439Y-74852362D01*
X138879201Y-74899981D01*
X138783962Y-74899981D01*
X138688724Y-74852362D01*
X138641105Y-74804743D01*
X138593486Y-74709505D01*
X138545867Y-74519029D01*
X138545867Y-74280933D01*
X138593486Y-74090457D01*
X138641105Y-73995219D01*
X138688724Y-73947600D01*
X138783962Y-73899981D01*
X140117296Y-74899981D02*
X139783962Y-74423790D01*
X139545867Y-74899981D02*
X139545867Y-73899981D01*
X139926820Y-73899981D01*
X140022058Y-73947600D01*
X140069677Y-73995219D01*
X140117296Y-74090457D01*
X140117296Y-74233314D01*
X140069677Y-74328552D01*
X140022058Y-74376171D01*
X139926820Y-74423790D01*
X139545867Y-74423790D01*
X126595334Y-75052381D02*
X126023905Y-75052381D01*
X126309619Y-75052381D02*
X126309619Y-74052381D01*
X126214381Y-74195238D01*
X126119143Y-74290476D01*
X126023905Y-74338095D01*
X127500096Y-74052381D02*
X127023905Y-74052381D01*
X126976286Y-74528571D01*
X127023905Y-74480952D01*
X127119143Y-74433333D01*
X127357239Y-74433333D01*
X127452477Y-74480952D01*
X127500096Y-74528571D01*
X127547715Y-74623810D01*
X127547715Y-74861905D01*
X127500096Y-74957143D01*
X127452477Y-75004762D01*
X127357239Y-75052381D01*
X127119143Y-75052381D01*
X127023905Y-75004762D01*
X126976286Y-74957143D01*
X128166762Y-74052381D02*
X128262001Y-74052381D01*
X128357239Y-74100000D01*
X128404858Y-74147619D01*
X128452477Y-74242857D01*
X128500096Y-74433333D01*
X128500096Y-74671429D01*
X128452477Y-74861905D01*
X128404858Y-74957143D01*
X128357239Y-75004762D01*
X128262001Y-75052381D01*
X128166762Y-75052381D01*
X128071524Y-75004762D01*
X128023905Y-74957143D01*
X127976286Y-74861905D01*
X127928667Y-74671429D01*
X127928667Y-74433333D01*
X127976286Y-74242857D01*
X128023905Y-74147619D01*
X128071524Y-74100000D01*
X128166762Y-74052381D01*
X129500096Y-75052381D02*
X129166762Y-74576190D01*
X128928667Y-75052381D02*
X128928667Y-74052381D01*
X129309620Y-74052381D01*
X129404858Y-74100000D01*
X129452477Y-74147619D01*
X129500096Y-74242857D01*
X129500096Y-74385714D01*
X129452477Y-74480952D01*
X129404858Y-74528571D01*
X129309620Y-74576190D01*
X128928667Y-74576190D01*
X128697381Y-96765714D02*
X128697381Y-96099047D01*
X129697381Y-96527619D01*
X129030714Y-95289523D02*
X129697381Y-95289523D01*
X128649762Y-95527619D02*
X129364048Y-95765714D01*
X129364048Y-95146666D01*
X129697381Y-94765714D02*
X128697381Y-94765714D01*
X129173571Y-94765714D02*
X129173571Y-94194285D01*
X129697381Y-94194285D02*
X128697381Y-94194285D01*
X129602143Y-93146666D02*
X129649762Y-93194285D01*
X129697381Y-93337142D01*
X129697381Y-93432380D01*
X129649762Y-93575238D01*
X129554524Y-93670476D01*
X129459286Y-93718095D01*
X129268810Y-93765714D01*
X129125952Y-93765714D01*
X128935476Y-93718095D01*
X128840238Y-93670476D01*
X128745000Y-93575238D01*
X128697381Y-93432380D01*
X128697381Y-93337142D01*
X128745000Y-93194285D01*
X128792619Y-93146666D01*
X128697381Y-92527619D02*
X128697381Y-92432380D01*
X128745000Y-92337142D01*
X128792619Y-92289523D01*
X128887857Y-92241904D01*
X129078333Y-92194285D01*
X129316429Y-92194285D01*
X129506905Y-92241904D01*
X129602143Y-92289523D01*
X129649762Y-92337142D01*
X129697381Y-92432380D01*
X129697381Y-92527619D01*
X129649762Y-92622857D01*
X129602143Y-92670476D01*
X129506905Y-92718095D01*
X129316429Y-92765714D01*
X129078333Y-92765714D01*
X128887857Y-92718095D01*
X128792619Y-92670476D01*
X128745000Y-92622857D01*
X128697381Y-92527619D01*
X129030714Y-91337142D02*
X129697381Y-91337142D01*
X128649762Y-91575238D02*
X129364048Y-91813333D01*
X129364048Y-91194285D01*
X141867143Y-92085981D02*
X141962382Y-92085981D01*
X142057620Y-92133600D01*
X142105239Y-92181219D01*
X142152858Y-92276457D01*
X142200477Y-92466933D01*
X142200477Y-92705029D01*
X142152858Y-92895505D01*
X142105239Y-92990743D01*
X142057620Y-93038362D01*
X141962382Y-93085981D01*
X141867143Y-93085981D01*
X141771905Y-93038362D01*
X141724286Y-92990743D01*
X141676667Y-92895505D01*
X141629048Y-92705029D01*
X141629048Y-92466933D01*
X141676667Y-92276457D01*
X141724286Y-92181219D01*
X141771905Y-92133600D01*
X141867143Y-92085981D01*
X142629048Y-92990743D02*
X142676667Y-93038362D01*
X142629048Y-93085981D01*
X142581429Y-93038362D01*
X142629048Y-92990743D01*
X142629048Y-93085981D01*
X143629048Y-93085981D02*
X143057619Y-93085981D01*
X143343333Y-93085981D02*
X143343333Y-92085981D01*
X143248095Y-92228838D01*
X143152857Y-92324076D01*
X143057619Y-92371695D01*
X144486191Y-92419314D02*
X144486191Y-93085981D01*
X144057619Y-92419314D02*
X144057619Y-92943124D01*
X144105238Y-93038362D01*
X144200476Y-93085981D01*
X144343334Y-93085981D01*
X144438572Y-93038362D01*
X144486191Y-92990743D01*
X145295715Y-92562171D02*
X144962381Y-92562171D01*
X144962381Y-93085981D02*
X144962381Y-92085981D01*
X145438572Y-92085981D01*
M02*
