G04 #@! TF.FileFunction,Copper,L1,Top,Signal*
%FSLAX46Y46*%
G04 Gerber Fmt 4.6, Leading zero omitted, Abs format (unit mm)*
G04 Created by KiCad (PCBNEW 4.0.5+dfsg1-4) date Wed Oct 11 15:00:53 2017*
%MOMM*%
%LPD*%
G01*
G04 APERTURE LIST*
%ADD10C,0.100000*%
%ADD11O,1.600000X1.600000*%
%ADD12R,1.250000X1.500000*%
%ADD13R,1.500000X1.250000*%
%ADD14R,2.000000X1.600000*%
%ADD15R,1.727200X2.032000*%
%ADD16O,1.727200X2.032000*%
%ADD17R,1.900000X0.800000*%
%ADD18R,1.500000X1.300000*%
%ADD19R,1.060000X0.650000*%
%ADD20R,0.600000X1.500000*%
%ADD21C,5.000000*%
%ADD22C,0.600000*%
%ADD23C,0.254000*%
%ADD24C,0.508000*%
%ADD25C,0.250000*%
G04 APERTURE END LIST*
D10*
D11*
X142240000Y-88646000D03*
X139700000Y-88646000D03*
X137160000Y-88646000D03*
X134620000Y-88646000D03*
X132080000Y-88646000D03*
X129540000Y-88646000D03*
X127000000Y-88646000D03*
X124460000Y-88646000D03*
X121920000Y-88646000D03*
X119380000Y-88646000D03*
X116840000Y-88646000D03*
X116840000Y-78486000D03*
X119380000Y-78486000D03*
X121920000Y-78486000D03*
X124460000Y-78486000D03*
X127000000Y-78486000D03*
X129540000Y-78486000D03*
X132080000Y-78486000D03*
X134620000Y-78486000D03*
X137160000Y-78486000D03*
X139700000Y-78486000D03*
X142240000Y-78486000D03*
D12*
X140564880Y-96647760D03*
X140564880Y-99147760D03*
D13*
X125514880Y-100797760D03*
X123014880Y-100797760D03*
D14*
X120914880Y-97497760D03*
X124914880Y-97497760D03*
D15*
X126164880Y-93997760D03*
D16*
X123624880Y-93997760D03*
X121084880Y-93997760D03*
X118544880Y-93997760D03*
X116004880Y-93997760D03*
X113464880Y-93997760D03*
D17*
X134596000Y-76134000D03*
X134596000Y-74234000D03*
X131596000Y-75184000D03*
D18*
X132739880Y-100797760D03*
X135439880Y-100797760D03*
X127789880Y-100797760D03*
X130489880Y-100797760D03*
X114414880Y-97097760D03*
X117114880Y-97097760D03*
X137029200Y-76047600D03*
X139729200Y-76047600D03*
X129112000Y-76200000D03*
X126412000Y-76200000D03*
D19*
X118764880Y-99947760D03*
X118764880Y-100897760D03*
X118764880Y-101847760D03*
X120964880Y-101847760D03*
X120964880Y-99947760D03*
D20*
X138430000Y-91280000D03*
X137160000Y-91280000D03*
X135890000Y-91280000D03*
X134620000Y-91280000D03*
X133350000Y-91280000D03*
X132080000Y-91280000D03*
X130810000Y-91280000D03*
X130810000Y-96680000D03*
X132080000Y-96680000D03*
X133350000Y-96680000D03*
X134620000Y-96680000D03*
X135890000Y-96680000D03*
X137160000Y-96680000D03*
X138430000Y-96680000D03*
D13*
X144760000Y-91033600D03*
X142260000Y-91033600D03*
D21*
X110764880Y-76297760D03*
X148364880Y-76297760D03*
X110764880Y-99497760D03*
X148364880Y-99497760D03*
D22*
X140564880Y-100697760D03*
X117564880Y-100797760D03*
X126664880Y-97497760D03*
X136939880Y-100797760D03*
X146164880Y-90947760D03*
X118589880Y-98497760D03*
D23*
X134620000Y-96680000D02*
X134620000Y-98247200D01*
X134764880Y-98097760D02*
X134764880Y-98247200D01*
X134764880Y-98102320D02*
X134764880Y-98097760D01*
X134620000Y-98247200D02*
X134764880Y-98102320D01*
D24*
X131964880Y-98247200D02*
X134764880Y-98247200D01*
X134764880Y-98247200D02*
X136415440Y-98247200D01*
X137160000Y-97502640D02*
X137160000Y-96680000D01*
X136415440Y-98247200D02*
X137160000Y-97502640D01*
D23*
X117114880Y-97097760D02*
X120514880Y-97097760D01*
X120514880Y-97097760D02*
X120914880Y-97497760D01*
D24*
X140564880Y-96647760D02*
X140564880Y-92728720D01*
X140564880Y-92728720D02*
X142260000Y-91033600D01*
D25*
X117514880Y-97497760D02*
X117114880Y-97097760D01*
D23*
X127789880Y-100797760D02*
X127789880Y-99272760D01*
X127789880Y-99272760D02*
X127764880Y-99247760D01*
X125514880Y-100797760D02*
X125514880Y-99397760D01*
X125514880Y-99397760D02*
X125664880Y-99247760D01*
D24*
X132080000Y-98247200D02*
X131964880Y-98247200D01*
X131964880Y-98247200D02*
X128765440Y-98247200D01*
X128765440Y-98247200D02*
X127764880Y-99247760D01*
X127764880Y-99247760D02*
X125664880Y-99247760D01*
X120913420Y-99247760D02*
X120913420Y-99248300D01*
X125664880Y-99247760D02*
X120913420Y-99247760D01*
D25*
X125614880Y-100897760D02*
X125514880Y-100797760D01*
X125614880Y-100897760D02*
X125514880Y-100797760D01*
D24*
X120914880Y-97497760D02*
X120913420Y-99248300D01*
X120913420Y-99248300D02*
X120912880Y-99895760D01*
D25*
X120912880Y-99895760D02*
X120964880Y-99947760D01*
X132080000Y-96680000D02*
X132080000Y-98247200D01*
D24*
X137160000Y-96680000D02*
X138430000Y-96680000D01*
X138430000Y-96680000D02*
X140557280Y-96640160D01*
D25*
X140557280Y-96640160D02*
X140564880Y-96647760D01*
D24*
X142260000Y-91033600D02*
X142260000Y-88666000D01*
D25*
X142260000Y-88666000D02*
X142240000Y-88646000D01*
D24*
X139700000Y-88646000D02*
X142240000Y-88646000D01*
D23*
X123014880Y-100797760D02*
X120589880Y-100797760D01*
X119489880Y-101897760D02*
X118814880Y-101897760D01*
X120589880Y-100797760D02*
X119489880Y-101897760D01*
X118814880Y-101897760D02*
X118764880Y-101847760D01*
D25*
X118764880Y-101847760D02*
X119168880Y-101847760D01*
X140564880Y-99147760D02*
X140539480Y-100723160D01*
X140539480Y-100723160D02*
X140564880Y-100697760D01*
X118764880Y-100897760D02*
X117691880Y-100924760D01*
X117691880Y-100924760D02*
X117564880Y-100797760D01*
X124914880Y-97497760D02*
X126664880Y-97497760D01*
X135439880Y-100797760D02*
X136939880Y-100797760D01*
X144760000Y-91033600D02*
X146063280Y-91049360D01*
X146063280Y-91049360D02*
X146164880Y-90947760D01*
X129540000Y-88646000D02*
X129540000Y-90010000D01*
X129540000Y-90010000D02*
X130810000Y-91280000D01*
X126412000Y-76200000D02*
X126412000Y-77898000D01*
X126412000Y-77898000D02*
X127000000Y-78486000D01*
X135890000Y-91280000D02*
X135890000Y-92272640D01*
X134164880Y-93997760D02*
X126164880Y-93997760D01*
X135890000Y-92272640D02*
X134164880Y-93997760D01*
X133350000Y-91280000D02*
X133350000Y-92312640D01*
X124914880Y-92247760D02*
X123624880Y-93287760D01*
X127414880Y-92247760D02*
X124914880Y-92247760D01*
X128414880Y-92997760D02*
X127414880Y-92247760D01*
X132664880Y-92997760D02*
X128414880Y-92997760D01*
X133350000Y-92312640D02*
X132664880Y-92997760D01*
X123624880Y-93287760D02*
X123624880Y-93997760D01*
X123624880Y-93997760D02*
X123624880Y-93037760D01*
X123624880Y-93997760D02*
X123624880Y-93032560D01*
X133350000Y-91280000D02*
X133350000Y-91897200D01*
X138430000Y-91280000D02*
X138430000Y-92482640D01*
X122164880Y-95997760D02*
X121084880Y-94917760D01*
X127414880Y-95997760D02*
X122164880Y-95997760D01*
X128414880Y-94997760D02*
X127414880Y-95997760D01*
X135914880Y-94997760D02*
X128414880Y-94997760D01*
X138430000Y-92482640D02*
X135914880Y-94997760D01*
X121084880Y-94917760D02*
X121084880Y-93997760D01*
X121084880Y-93997760D02*
X121084880Y-94667760D01*
D24*
X118764880Y-99947760D02*
X118759880Y-98667760D01*
D25*
X118759880Y-98667760D02*
X118589880Y-98497760D01*
D23*
X114414880Y-97097760D02*
X114414880Y-96947760D01*
X114414880Y-96947760D02*
X113464880Y-95997760D01*
X113464880Y-95997760D02*
X113464880Y-93997760D01*
D25*
X113464880Y-93997760D02*
X113464880Y-78597760D01*
X113464880Y-78597760D02*
X117964880Y-74097760D01*
X117964880Y-74097760D02*
X134459760Y-74097760D01*
X134459760Y-74097760D02*
X134596000Y-74234000D01*
X114414880Y-97097760D02*
X114364880Y-97097760D01*
X114367880Y-97050760D02*
X114414880Y-97097760D01*
X113486480Y-93976160D02*
X113464880Y-93997760D01*
X137029200Y-76047600D02*
X134682400Y-76047600D01*
X134682400Y-76047600D02*
X134596000Y-76134000D01*
X134204800Y-76047600D02*
X134189600Y-76032400D01*
X129112000Y-76200000D02*
X130580000Y-76200000D01*
X130580000Y-76200000D02*
X131596000Y-75184000D01*
D23*
X130489880Y-100797760D02*
X130489880Y-101572760D01*
X130214880Y-101847760D02*
X120964880Y-101847760D01*
X130489880Y-101572760D02*
X130214880Y-101847760D01*
X130489880Y-100797760D02*
X130489880Y-101172760D01*
D25*
X120964880Y-101847760D02*
X121068880Y-101847760D01*
X130489880Y-100797760D02*
X132739880Y-100797760D01*
X139729200Y-76047600D02*
X139729200Y-78456800D01*
X139729200Y-78456800D02*
X139700000Y-78486000D01*
X137160000Y-91280000D02*
X137160000Y-88646000D01*
X134620000Y-91280000D02*
X134620000Y-88646000D01*
X132080000Y-91280000D02*
X132080000Y-88646000D01*
M02*
