G04 #@! TF.FileFunction,Legend,Bot*
%FSLAX46Y46*%
G04 Gerber Fmt 4.6, Leading zero omitted, Abs format (unit mm)*
G04 Created by KiCad (PCBNEW 4.0.5+dfsg1-4) date Wed Oct 11 15:00:53 2017*
%MOMM*%
%LPD*%
G01*
G04 APERTURE LIST*
%ADD10C,0.100000*%
%ADD11C,0.150000*%
G04 APERTURE END LIST*
D10*
D11*
X144535000Y-88511000D02*
X143265000Y-88511000D01*
X144535000Y-78621000D02*
X143265000Y-78621000D01*
X114545000Y-78621000D02*
X115815000Y-78621000D01*
X114545000Y-88511000D02*
X115815000Y-88511000D01*
X144535000Y-88511000D02*
X144535000Y-78621000D01*
X114545000Y-88511000D02*
X114545000Y-78621000D01*
X143265000Y-88511000D02*
X143265000Y-89446000D01*
X145412381Y-84455524D02*
X145412381Y-85026953D01*
X146412381Y-84741238D02*
X145412381Y-84741238D01*
X146317143Y-85931715D02*
X146364762Y-85884096D01*
X146412381Y-85741239D01*
X146412381Y-85646001D01*
X146364762Y-85503143D01*
X146269524Y-85407905D01*
X146174286Y-85360286D01*
X145983810Y-85312667D01*
X145840952Y-85312667D01*
X145650476Y-85360286D01*
X145555238Y-85407905D01*
X145460000Y-85503143D01*
X145412381Y-85646001D01*
X145412381Y-85741239D01*
X145460000Y-85884096D01*
X145507619Y-85931715D01*
X146412381Y-86360286D02*
X145412381Y-86360286D01*
X145412381Y-86598381D01*
X145460000Y-86741239D01*
X145555238Y-86836477D01*
X145650476Y-86884096D01*
X145840952Y-86931715D01*
X145983810Y-86931715D01*
X146174286Y-86884096D01*
X146269524Y-86836477D01*
X146364762Y-86741239D01*
X146412381Y-86598381D01*
X146412381Y-86360286D01*
X146412381Y-87884096D02*
X146412381Y-87312667D01*
X146412381Y-87598381D02*
X145412381Y-87598381D01*
X145555238Y-87503143D01*
X145650476Y-87407905D01*
X145698095Y-87312667D01*
X145412381Y-88217429D02*
X145412381Y-88836477D01*
X145793333Y-88503143D01*
X145793333Y-88646001D01*
X145840952Y-88741239D01*
X145888571Y-88788858D01*
X145983810Y-88836477D01*
X146221905Y-88836477D01*
X146317143Y-88788858D01*
X146364762Y-88741239D01*
X146412381Y-88646001D01*
X146412381Y-88360286D01*
X146364762Y-88265048D01*
X146317143Y-88217429D01*
X145412381Y-89455524D02*
X145412381Y-89550763D01*
X145460000Y-89646001D01*
X145507619Y-89693620D01*
X145602857Y-89741239D01*
X145793333Y-89788858D01*
X146031429Y-89788858D01*
X146221905Y-89741239D01*
X146317143Y-89693620D01*
X146364762Y-89646001D01*
X146412381Y-89550763D01*
X146412381Y-89455524D01*
X146364762Y-89360286D01*
X146317143Y-89312667D01*
X146221905Y-89265048D01*
X146031429Y-89217429D01*
X145793333Y-89217429D01*
X145602857Y-89265048D01*
X145507619Y-89312667D01*
X145460000Y-89360286D01*
X145412381Y-89455524D01*
X145745714Y-90646001D02*
X146412381Y-90646001D01*
X145364762Y-90407905D02*
X146079048Y-90169810D01*
X146079048Y-90788858D01*
X146412381Y-91169810D02*
X145412381Y-91169810D01*
X145412381Y-91407905D01*
X145460000Y-91550763D01*
X145555238Y-91646001D01*
X145650476Y-91693620D01*
X145840952Y-91741239D01*
X145983810Y-91741239D01*
X146174286Y-91693620D01*
X146269524Y-91646001D01*
X146364762Y-91550763D01*
X146412381Y-91407905D01*
X146412381Y-91169810D01*
X145460000Y-92693620D02*
X145412381Y-92598382D01*
X145412381Y-92455525D01*
X145460000Y-92312667D01*
X145555238Y-92217429D01*
X145650476Y-92169810D01*
X145840952Y-92122191D01*
X145983810Y-92122191D01*
X146174286Y-92169810D01*
X146269524Y-92217429D01*
X146364762Y-92312667D01*
X146412381Y-92455525D01*
X146412381Y-92550763D01*
X146364762Y-92693620D01*
X146317143Y-92741239D01*
X145983810Y-92741239D01*
X145983810Y-92550763D01*
M02*
