G04 #@! TF.FileFunction,Legend,Top*
%FSLAX46Y46*%
G04 Gerber Fmt 4.6, Leading zero omitted, Abs format (unit mm)*
G04 Created by KiCad (PCBNEW 4.0.5+dfsg1-4) date Tue Mar 13 15:03:46 2018*
%MOMM*%
%LPD*%
G01*
G04 APERTURE LIST*
%ADD10C,0.100000*%
%ADD11C,0.150000*%
%ADD12C,0.120000*%
G04 APERTURE END LIST*
D10*
D11*
X126994880Y-95367760D02*
X114294880Y-95367760D01*
X114294880Y-95367760D02*
X114294880Y-92827760D01*
X114294880Y-92827760D02*
X126994880Y-92827760D01*
X129814880Y-95647760D02*
X128264880Y-95647760D01*
X126994880Y-95367760D02*
X126994880Y-92827760D01*
X128264880Y-92547760D02*
X129814880Y-92547760D01*
X129814880Y-92547760D02*
X129814880Y-95647760D01*
D12*
X132804880Y-73617760D02*
X132804880Y-74547760D01*
X132804880Y-76777760D02*
X132804880Y-75847760D01*
X132804880Y-76777760D02*
X135964880Y-76777760D01*
X132804880Y-73617760D02*
X134264880Y-73617760D01*
D11*
X139070000Y-91905000D02*
X139045000Y-91905000D01*
X139070000Y-96055000D02*
X138955000Y-96055000D01*
X130170000Y-96055000D02*
X130285000Y-96055000D01*
X130170000Y-91905000D02*
X130285000Y-91905000D01*
X139070000Y-91905000D02*
X139070000Y-96055000D01*
X130170000Y-91905000D02*
X130170000Y-96055000D01*
X139045000Y-91905000D02*
X139045000Y-90530000D01*
X113050880Y-76297760D02*
G75*
G03X113050880Y-76297760I-2286000J0D01*
G01*
X150650880Y-76297760D02*
G75*
G03X150650880Y-76297760I-2286000J0D01*
G01*
X113050880Y-99497760D02*
G75*
G03X113050880Y-99497760I-2286000J0D01*
G01*
X150650880Y-99497760D02*
G75*
G03X150650880Y-99497760I-2286000J0D01*
G01*
X119114880Y-100697760D02*
X119114880Y-99697760D01*
X117414880Y-99697760D02*
X117414880Y-100697760D01*
X125564880Y-101147760D02*
X126564880Y-101147760D01*
X126564880Y-99447760D02*
X125564880Y-99447760D01*
X125364880Y-96072760D02*
X123364880Y-96072760D01*
X123364880Y-98122760D02*
X125364880Y-98122760D01*
X141214880Y-98297760D02*
X141214880Y-97297760D01*
X139514880Y-97297760D02*
X139514880Y-98297760D01*
X142964880Y-91647760D02*
X143964880Y-91647760D01*
X143964880Y-89947760D02*
X142964880Y-89947760D01*
X130314880Y-99897760D02*
X130314880Y-100897760D01*
X132014880Y-100897760D02*
X132014880Y-99897760D01*
X129914880Y-100897760D02*
X129914880Y-99897760D01*
X128214880Y-99897760D02*
X128214880Y-100897760D01*
X117164880Y-96147760D02*
X116164880Y-96147760D01*
X116164880Y-97847760D02*
X117164880Y-97847760D01*
X138879200Y-75197600D02*
X137879200Y-75197600D01*
X137879200Y-76897600D02*
X138879200Y-76897600D01*
X128364880Y-76947760D02*
X129364880Y-76947760D01*
X129364880Y-75247760D02*
X128364880Y-75247760D01*
D12*
X120864880Y-101807760D02*
X122664880Y-101807760D01*
X122664880Y-98587760D02*
X120214880Y-98587760D01*
D11*
X117022023Y-100364426D02*
X117069642Y-100412045D01*
X117117261Y-100554902D01*
X117117261Y-100650140D01*
X117069642Y-100792998D01*
X116974404Y-100888236D01*
X116879166Y-100935855D01*
X116688690Y-100983474D01*
X116545832Y-100983474D01*
X116355356Y-100935855D01*
X116260118Y-100888236D01*
X116164880Y-100792998D01*
X116117261Y-100650140D01*
X116117261Y-100554902D01*
X116164880Y-100412045D01*
X116212499Y-100364426D01*
X116117261Y-99459664D02*
X116117261Y-99935855D01*
X116593451Y-99983474D01*
X116545832Y-99935855D01*
X116498213Y-99840617D01*
X116498213Y-99602521D01*
X116545832Y-99507283D01*
X116593451Y-99459664D01*
X116688690Y-99412045D01*
X116926785Y-99412045D01*
X117022023Y-99459664D01*
X117069642Y-99507283D01*
X117117261Y-99602521D01*
X117117261Y-99840617D01*
X117069642Y-99935855D01*
X117022023Y-99983474D01*
X125898214Y-102154903D02*
X125850595Y-102202522D01*
X125707738Y-102250141D01*
X125612500Y-102250141D01*
X125469642Y-102202522D01*
X125374404Y-102107284D01*
X125326785Y-102012046D01*
X125279166Y-101821570D01*
X125279166Y-101678712D01*
X125326785Y-101488236D01*
X125374404Y-101392998D01*
X125469642Y-101297760D01*
X125612500Y-101250141D01*
X125707738Y-101250141D01*
X125850595Y-101297760D01*
X125898214Y-101345379D01*
X126850595Y-102250141D02*
X126279166Y-102250141D01*
X126564880Y-102250141D02*
X126564880Y-101250141D01*
X126469642Y-101392998D01*
X126374404Y-101488236D01*
X126279166Y-101535855D01*
X127398214Y-96954903D02*
X127350595Y-97002522D01*
X127207738Y-97050141D01*
X127112500Y-97050141D01*
X126969642Y-97002522D01*
X126874404Y-96907284D01*
X126826785Y-96812046D01*
X126779166Y-96621570D01*
X126779166Y-96478712D01*
X126826785Y-96288236D01*
X126874404Y-96192998D01*
X126969642Y-96097760D01*
X127112500Y-96050141D01*
X127207738Y-96050141D01*
X127350595Y-96097760D01*
X127398214Y-96145379D01*
X127779166Y-96145379D02*
X127826785Y-96097760D01*
X127922023Y-96050141D01*
X128160119Y-96050141D01*
X128255357Y-96097760D01*
X128302976Y-96145379D01*
X128350595Y-96240617D01*
X128350595Y-96335855D01*
X128302976Y-96478712D01*
X127731547Y-97050141D01*
X128350595Y-97050141D01*
X142422023Y-97964426D02*
X142469642Y-98012045D01*
X142517261Y-98154902D01*
X142517261Y-98250140D01*
X142469642Y-98392998D01*
X142374404Y-98488236D01*
X142279166Y-98535855D01*
X142088690Y-98583474D01*
X141945832Y-98583474D01*
X141755356Y-98535855D01*
X141660118Y-98488236D01*
X141564880Y-98392998D01*
X141517261Y-98250140D01*
X141517261Y-98154902D01*
X141564880Y-98012045D01*
X141612499Y-97964426D01*
X141517261Y-97631093D02*
X141517261Y-97012045D01*
X141898213Y-97345379D01*
X141898213Y-97202521D01*
X141945832Y-97107283D01*
X141993451Y-97059664D01*
X142088690Y-97012045D01*
X142326785Y-97012045D01*
X142422023Y-97059664D01*
X142469642Y-97107283D01*
X142517261Y-97202521D01*
X142517261Y-97488236D01*
X142469642Y-97583474D01*
X142422023Y-97631093D01*
X143298214Y-92754903D02*
X143250595Y-92802522D01*
X143107738Y-92850141D01*
X143012500Y-92850141D01*
X142869642Y-92802522D01*
X142774404Y-92707284D01*
X142726785Y-92612046D01*
X142679166Y-92421570D01*
X142679166Y-92278712D01*
X142726785Y-92088236D01*
X142774404Y-91992998D01*
X142869642Y-91897760D01*
X143012500Y-91850141D01*
X143107738Y-91850141D01*
X143250595Y-91897760D01*
X143298214Y-91945379D01*
X144155357Y-92183474D02*
X144155357Y-92850141D01*
X143917261Y-91802522D02*
X143679166Y-92516808D01*
X144298214Y-92516808D01*
X133217261Y-100564426D02*
X132741070Y-100897760D01*
X133217261Y-101135855D02*
X132217261Y-101135855D01*
X132217261Y-100754902D01*
X132264880Y-100659664D01*
X132312499Y-100612045D01*
X132407737Y-100564426D01*
X132550594Y-100564426D01*
X132645832Y-100612045D01*
X132693451Y-100659664D01*
X132741070Y-100754902D01*
X132741070Y-101135855D01*
X133217261Y-99612045D02*
X133217261Y-100183474D01*
X133217261Y-99897760D02*
X132217261Y-99897760D01*
X132360118Y-99992998D01*
X132455356Y-100088236D01*
X132502975Y-100183474D01*
X128798214Y-98550141D02*
X128464880Y-98073950D01*
X128226785Y-98550141D02*
X128226785Y-97550141D01*
X128607738Y-97550141D01*
X128702976Y-97597760D01*
X128750595Y-97645379D01*
X128798214Y-97740617D01*
X128798214Y-97883474D01*
X128750595Y-97978712D01*
X128702976Y-98026331D01*
X128607738Y-98073950D01*
X128226785Y-98073950D01*
X129179166Y-97645379D02*
X129226785Y-97597760D01*
X129322023Y-97550141D01*
X129560119Y-97550141D01*
X129655357Y-97597760D01*
X129702976Y-97645379D01*
X129750595Y-97740617D01*
X129750595Y-97835855D01*
X129702976Y-97978712D01*
X129131547Y-98550141D01*
X129750595Y-98550141D01*
X115198214Y-98950141D02*
X114864880Y-98473950D01*
X114626785Y-98950141D02*
X114626785Y-97950141D01*
X115007738Y-97950141D01*
X115102976Y-97997760D01*
X115150595Y-98045379D01*
X115198214Y-98140617D01*
X115198214Y-98283474D01*
X115150595Y-98378712D01*
X115102976Y-98426331D01*
X115007738Y-98473950D01*
X114626785Y-98473950D01*
X115531547Y-97950141D02*
X116150595Y-97950141D01*
X115817261Y-98331093D01*
X115960119Y-98331093D01*
X116055357Y-98378712D01*
X116102976Y-98426331D01*
X116150595Y-98521570D01*
X116150595Y-98759665D01*
X116102976Y-98854903D01*
X116055357Y-98902522D01*
X115960119Y-98950141D01*
X115674404Y-98950141D01*
X115579166Y-98902522D01*
X115531547Y-98854903D01*
X138198214Y-74850141D02*
X137864880Y-74373950D01*
X137626785Y-74850141D02*
X137626785Y-73850141D01*
X138007738Y-73850141D01*
X138102976Y-73897760D01*
X138150595Y-73945379D01*
X138198214Y-74040617D01*
X138198214Y-74183474D01*
X138150595Y-74278712D01*
X138102976Y-74326331D01*
X138007738Y-74373950D01*
X137626785Y-74373950D01*
X139055357Y-74183474D02*
X139055357Y-74850141D01*
X138817261Y-73802522D02*
X138579166Y-74516808D01*
X139198214Y-74516808D01*
X128698214Y-74950141D02*
X128364880Y-74473950D01*
X128126785Y-74950141D02*
X128126785Y-73950141D01*
X128507738Y-73950141D01*
X128602976Y-73997760D01*
X128650595Y-74045379D01*
X128698214Y-74140617D01*
X128698214Y-74283474D01*
X128650595Y-74378712D01*
X128602976Y-74426331D01*
X128507738Y-74473950D01*
X128126785Y-74473950D01*
X129602976Y-73950141D02*
X129126785Y-73950141D01*
X129079166Y-74426331D01*
X129126785Y-74378712D01*
X129222023Y-74331093D01*
X129460119Y-74331093D01*
X129555357Y-74378712D01*
X129602976Y-74426331D01*
X129650595Y-74521570D01*
X129650595Y-74759665D01*
X129602976Y-74854903D01*
X129555357Y-74902522D01*
X129460119Y-74950141D01*
X129222023Y-74950141D01*
X129126785Y-74902522D01*
X129079166Y-74854903D01*
X119802975Y-97250141D02*
X119802975Y-98059665D01*
X119850594Y-98154903D01*
X119898213Y-98202522D01*
X119993451Y-98250141D01*
X120183928Y-98250141D01*
X120279166Y-98202522D01*
X120326785Y-98154903D01*
X120374404Y-98059665D01*
X120374404Y-97250141D01*
X121374404Y-98250141D02*
X120802975Y-98250141D01*
X121088689Y-98250141D02*
X121088689Y-97250141D01*
X120993451Y-97392998D01*
X120898213Y-97488236D01*
X120802975Y-97535855D01*
M02*
