M48
INCH,TZ
T1C0.016
T2C0.031
T3C0.040
T4C0.126
%
G90
G05
T1
X46955Y-39448
X47506Y-38582
X49238Y-38227
X52112Y-39133
X55341Y-39330
X57230Y-35826
T2
X46000Y-30900
X46000Y-34900
X47000Y-30900
X47000Y-34900
X48000Y-30900
X48000Y-34900
X49000Y-30900
X49000Y-34900
X50000Y-30900
X50000Y-34900
X51000Y-30900
X51000Y-34900
X52000Y-30900
X52000Y-34900
X53000Y-30900
X53000Y-34900
X54000Y-30900
X54000Y-34900
X55000Y-30900
X55000Y-34900
X56000Y-30900
X56000Y-34900
T3
X45498Y-37046
X46498Y-37046
X47498Y-37046
X48498Y-37046
X49498Y-37046
X50498Y-37046
T4
X43608Y-30038
X43608Y-39172
X58411Y-30038
X58411Y-39172
T0
M30
