G04 #@! TF.FileFunction,Copper,L1,Top,Signal*
%FSLAX46Y46*%
G04 Gerber Fmt 4.6, Leading zero omitted, Abs format (unit mm)*
G04 Created by KiCad (PCBNEW 4.0.5+dfsg1-4) date Tue Mar 13 15:03:46 2018*
%MOMM*%
%LPD*%
G01*
G04 APERTURE LIST*
%ADD10C,0.100000*%
%ADD11R,1.727200X2.032000*%
%ADD12O,1.727200X2.032000*%
%ADD13O,1.600000X1.600000*%
%ADD14R,1.900000X0.800000*%
%ADD15R,0.600000X1.500000*%
%ADD16C,5.000000*%
%ADD17R,1.250000X1.000000*%
%ADD18R,1.000000X1.250000*%
%ADD19R,1.000000X1.600000*%
%ADD20R,1.560000X0.650000*%
%ADD21C,0.600000*%
%ADD22C,0.250000*%
%ADD23C,0.508000*%
%ADD24C,0.254000*%
G04 APERTURE END LIST*
D10*
D11*
X128264880Y-94097760D03*
D12*
X125724880Y-94097760D03*
X123184880Y-94097760D03*
X120644880Y-94097760D03*
X118104880Y-94097760D03*
X115564880Y-94097760D03*
D13*
X142240000Y-88646000D03*
X139700000Y-88646000D03*
X137160000Y-88646000D03*
X134620000Y-88646000D03*
X132080000Y-88646000D03*
X129540000Y-88646000D03*
X127000000Y-88646000D03*
X124460000Y-88646000D03*
X121920000Y-88646000D03*
X119380000Y-88646000D03*
X116840000Y-88646000D03*
X116840000Y-78486000D03*
X119380000Y-78486000D03*
X121920000Y-78486000D03*
X124460000Y-78486000D03*
X127000000Y-78486000D03*
X129540000Y-78486000D03*
X132080000Y-78486000D03*
X134620000Y-78486000D03*
X137160000Y-78486000D03*
X139700000Y-78486000D03*
X142240000Y-78486000D03*
D14*
X135064880Y-76147760D03*
X135064880Y-74247760D03*
X132064880Y-75197760D03*
D15*
X138430000Y-91280000D03*
X137160000Y-91280000D03*
X135890000Y-91280000D03*
X134620000Y-91280000D03*
X133350000Y-91280000D03*
X132080000Y-91280000D03*
X130810000Y-91280000D03*
X130810000Y-96680000D03*
X132080000Y-96680000D03*
X133350000Y-96680000D03*
X134620000Y-96680000D03*
X135890000Y-96680000D03*
X137160000Y-96680000D03*
X138430000Y-96680000D03*
D16*
X110764880Y-76297760D03*
X148364880Y-76297760D03*
X110764880Y-99497760D03*
X148364880Y-99497760D03*
D17*
X118264880Y-99197760D03*
X118264880Y-101197760D03*
D18*
X127064880Y-100297760D03*
X125064880Y-100297760D03*
D19*
X122864880Y-97097760D03*
X125864880Y-97097760D03*
D17*
X140364880Y-96797760D03*
X140364880Y-98797760D03*
D18*
X144464880Y-90797760D03*
X142464880Y-90797760D03*
D17*
X131164880Y-101397760D03*
X131164880Y-99397760D03*
X129064880Y-99397760D03*
X129064880Y-101397760D03*
D18*
X115664880Y-96997760D03*
X117664880Y-96997760D03*
X137379200Y-76047600D03*
X139379200Y-76047600D03*
X129864880Y-76097760D03*
X127864880Y-76097760D03*
D20*
X120414880Y-99247760D03*
X120414880Y-100197760D03*
X120414880Y-101147760D03*
X123114880Y-101147760D03*
X123114880Y-99247760D03*
D21*
X119264880Y-100197760D03*
X125064880Y-97097760D03*
X132364880Y-99397760D03*
X140564880Y-99897760D03*
X145364880Y-90997760D03*
X120664880Y-97997760D03*
D22*
X127064880Y-100297760D02*
X127064880Y-99297760D01*
X127064880Y-99297760D02*
X126564880Y-98797760D01*
X122864880Y-97097760D02*
X117764880Y-97097760D01*
X117764880Y-97097760D02*
X117664880Y-96997760D01*
D23*
X122864880Y-97097760D02*
X122864880Y-99247760D01*
D22*
X129064880Y-99397760D02*
X129064880Y-98247200D01*
X129064880Y-98247200D02*
X129064880Y-98297760D01*
X129064880Y-98297760D02*
X129064880Y-98247200D01*
X128264880Y-98247200D02*
X128264880Y-98297760D01*
X128264880Y-98297760D02*
X128264880Y-98247200D01*
D23*
X131964880Y-98247200D02*
X129064880Y-98247200D01*
X129064880Y-98247200D02*
X128264880Y-98247200D01*
X128264880Y-98247200D02*
X127115440Y-98247200D01*
X123314880Y-98797760D02*
X122864880Y-99247760D01*
X126564880Y-98797760D02*
X123314880Y-98797760D01*
X127115440Y-98247200D02*
X126564880Y-98797760D01*
D24*
X134620000Y-96680000D02*
X134620000Y-98247200D01*
X134764880Y-98097760D02*
X134764880Y-98247200D01*
X134764880Y-98102320D02*
X134764880Y-98097760D01*
X134620000Y-98247200D02*
X134764880Y-98102320D01*
D23*
X131964880Y-98247200D02*
X134764880Y-98247200D01*
X134764880Y-98247200D02*
X136415440Y-98247200D01*
X137160000Y-97502640D02*
X137160000Y-96680000D01*
X136415440Y-98247200D02*
X137160000Y-97502640D01*
X140564880Y-96647760D02*
X140564880Y-92728720D01*
X140564880Y-92728720D02*
X142260000Y-91033600D01*
X132080000Y-98247200D02*
X131964880Y-98247200D01*
D22*
X132080000Y-96680000D02*
X132080000Y-98247200D01*
D23*
X137160000Y-96680000D02*
X138430000Y-96680000D01*
X138430000Y-96680000D02*
X140557280Y-96640160D01*
D22*
X140557280Y-96640160D02*
X140564880Y-96647760D01*
D23*
X142260000Y-91033600D02*
X142260000Y-88666000D01*
D22*
X142260000Y-88666000D02*
X142240000Y-88646000D01*
D23*
X139700000Y-88646000D02*
X142240000Y-88646000D01*
D22*
X124764880Y-100297760D02*
X122064880Y-100297760D01*
X121214880Y-101147760D02*
X120414880Y-101147760D01*
X122064880Y-100297760D02*
X121214880Y-101147760D01*
X121114880Y-101147760D02*
X120664880Y-101147760D01*
X127000000Y-78486000D02*
X127000000Y-76962640D01*
X127000000Y-76962640D02*
X127864880Y-76097760D01*
X118264880Y-101197760D02*
X118564880Y-101197760D01*
X118564880Y-101197760D02*
X119264880Y-100197760D01*
X120664880Y-100197760D02*
X119264880Y-100197760D01*
X125864880Y-97097760D02*
X125064880Y-97097760D01*
X131164880Y-99397760D02*
X132364880Y-99397760D01*
X116564880Y-88921120D02*
X116840000Y-88646000D01*
X140564880Y-99147760D02*
X140539480Y-99923160D01*
X140539480Y-99923160D02*
X140564880Y-99897760D01*
X144760000Y-91033600D02*
X145263280Y-91099360D01*
X145263280Y-91099360D02*
X145364880Y-90997760D01*
X129540000Y-88646000D02*
X129540000Y-90010000D01*
X129540000Y-90010000D02*
X130810000Y-91280000D01*
X128264880Y-94097760D02*
X134764880Y-94097760D01*
X135890000Y-92972640D02*
X135890000Y-91280000D01*
X134764880Y-94097760D02*
X135890000Y-92972640D01*
X125724880Y-94097760D02*
X125724880Y-93937760D01*
X125724880Y-93937760D02*
X126964880Y-92697760D01*
X126964880Y-92697760D02*
X132764880Y-92697760D01*
X132764880Y-92697760D02*
X133350000Y-92112640D01*
X133350000Y-92112640D02*
X133350000Y-91280000D01*
X133350000Y-91280000D02*
X133350000Y-91897200D01*
X123184880Y-94097760D02*
X123264880Y-94097760D01*
X123264880Y-94097760D02*
X124764880Y-95597760D01*
X124764880Y-95597760D02*
X129764880Y-95597760D01*
X129764880Y-95597760D02*
X130464880Y-94897760D01*
X130464880Y-94897760D02*
X136264880Y-94897760D01*
X136264880Y-94897760D02*
X138430000Y-92732640D01*
X138430000Y-92732640D02*
X138430000Y-91280000D01*
D23*
X120664880Y-99247760D02*
X118314880Y-99247760D01*
X118314880Y-99247760D02*
X118264880Y-99197760D01*
X120664880Y-97997760D02*
X120664880Y-99247760D01*
D22*
X115664880Y-96997760D02*
X115664880Y-94197760D01*
X115664880Y-94197760D02*
X115564880Y-94097760D01*
X115664880Y-96997760D02*
X114464880Y-96997760D01*
X114464880Y-96997760D02*
X114364880Y-96897760D01*
D24*
X114364880Y-96897760D02*
X113464880Y-95997760D01*
X113464880Y-95997760D02*
X113464880Y-93997760D01*
D22*
X113464880Y-93997760D02*
X113464880Y-78597760D01*
X113464880Y-78597760D02*
X117964880Y-74097760D01*
X117964880Y-74097760D02*
X134928640Y-74111520D01*
X134928640Y-74111520D02*
X135064880Y-74247760D01*
X113486480Y-93976160D02*
X113464880Y-93997760D01*
X137029200Y-76047600D02*
X135151280Y-76061360D01*
X135151280Y-76061360D02*
X135064880Y-76147760D01*
X134673680Y-76061360D02*
X134658480Y-76046160D01*
X132064880Y-75197760D02*
X130764880Y-75197760D01*
X130764880Y-75197760D02*
X129864880Y-76097760D01*
X129064880Y-101397760D02*
X123114880Y-101397760D01*
X123114880Y-101397760D02*
X122864880Y-101147760D01*
X129064880Y-101397760D02*
X131164880Y-101397760D01*
X139729200Y-76047600D02*
X139729200Y-78456800D01*
X139729200Y-78456800D02*
X139700000Y-78486000D01*
X137160000Y-91280000D02*
X137160000Y-88646000D01*
X134620000Y-91280000D02*
X134620000Y-88646000D01*
X132080000Y-91280000D02*
X132080000Y-88646000D01*
M02*
