<?xml version="1.0" encoding="UTF-8" standalone="no"?>
<svg xmlns:rdf="http://www.w3.org/1999/02/22-rdf-syntax-ns#" xmlns="http://www.w3.org/2000/svg" height="771.12" width="1279.1" version="1.1" xmlns:cc="http://creativecommons.org/ns#" xmlns:dc="http://purl.org/dc/elements/1.1/">
 <title>Fluorescent lighting spectrum with emission peaks numbered</title>
 <metadata>
  <rdf:RDF>
   <cc:Work rdf:about="">
    <dc:format>image/svg+xml</dc:format>
    <dc:type rdf:resource="http://purl.org/dc/dcmitype/StillImage"/>
    <dc:title>Fluorescent lighting spectrum with emission peaks numbered</dc:title>
   </cc:Work>
  </rdf:RDF>
 </metadata>
 <g transform="translate(5.0234 -.54624)">
  <g stroke="#f81d00" stroke-miterlimit="5" fill="none">
   <path d="m55.509 698.94-0.026-630.92"/>
   <path d="m1262.5 700.65-0.01-632.63"/>
   <path d="m53.013 698.53 1211.1-0.005"/>
   <path d="m1136.5 696l-0.021 5.069"/>
   <path d="m1011.5 695.99l-0.021 5.069"/>
   <path d="m885.48 695.82l-0.021 5.069"/>
   <path d="m633.49 696.07l-0.021 5.069"/>
   <path d="m508.54 696.03l-0.021 5.069"/>
   <path d="m382.54 696.03l-0.021 5.069"/>
   <path d="m256.51 696.03l-0.021 5.069"/>
   <path d="m130.55 695.91l-0.021 5.069"/>
   <path d="m58.023 623.52l-5.069-0.021"/>
   <path d="m58.023 548.51l-5.069-0.021"/>
   <path d="m58.023 473.58l-5.069-0.021"/>
   <path d="m57.981 398.52l-5.069-0.021"/>
   <path d="m58.106 323.51l-5.069-0.021"/>
   <path d="m58.106 248.5l-5.069-0.021"/>
   <path d="m57.981 173.48l-5.069-0.021"/>
   <path d="m58.064 98.512l-5.069-0.021"/>
  </g>
  <g font-family="Nimbus Sans L, NimbusSanL, Liberation Sans, Arial, sans-serif" font-weight="bold" style="word-spacing:0px;letter-spacing:0px;line-height:125%" fill="#000000" xml:space="preserve">
   <g font-size="18px">
    <text style="text-anchor:end;text-align:end" y="554.60999" x="44.782227">1000</text>
    <text style="text-anchor:end;text-align:end" y="404.75732" x="44.782227">2000</text>
    <text style="text-anchor:end;text-align:end" y="254.80151" x="44.782227">3000</text>
    <text style="text-anchor:end;text-align:end" y="104.43771" x="44.782227">4000</text>
    <text y="728.38275" x="114.07996">400</text>
    <text y="728.60547" x="366.53607">500</text>
    <text y="728.60553" x="617.79169">600</text>
    <text y="728.60547" x="870.31812">700</text>
    <text y="728.84155" x="1121.1926">800</text>
    <text y="707.12891" x="40.241352">0</text>
    <text y="601.58136" x="110.70081">1</text>
    <text y="423.86798" x="192.68097">2</text>
    <text y="513.89716" x="349.03888">3</text>
    <text y="169.6344" x="442.38531">4</text>
    <text y="73.090172" x="549.02826">5</text>
    <text y="547.99023" x="532.48358">6</text>
    <text y="521.62299" x="561.55621">7</text>
    <text y="492.34348" x="578.52063">8</text>
    <text y="483.06549" x="606.14551">9</text>
    <text y="509.37109" x="622.86182">10</text>
    <text y="543.60217" x="634.33008">11</text>
    <text y="83.980103" x="702.40417">12</text>
    <text y="549.13391" x="687.69159">13</text>
    <text y="557.95844" x="745.99719">14</text>
    <text y="603.57758" x="751.08118">15</text>
    <text y="607.57568" x="784.05469">16</text>
    <text y="625.8703" x="822.07507">17</text>
    <text y="615.83514" x="860.03387">18</text>
    <text y="603.70807" x="896.07849">19</text>
    <text y="619.48792" x="946.33185">20</text>
    <text y="624.46753" x="1069.6707">21</text>
    <text y="621.05145" x="1186.222">22</text>
   </g>
   <g font-size="22px">
    <text style="text-anchor:middle;text-align:center" y="757.00879" x="641.78021">Wavelength (nanometres)</text>
    <text style="text-anchor:middle;text-align:center"><tspan x="55.146721" y="26.487642">Intensity</tspan><tspan x="55.146721" y="53.98764">(Counts)</tspan></text>
   </g>
  </g>
  <path style="color:#000000" d="m55.822 679.12c1.0698 0.0299 1.6408-0.94558 2.4198-1.335 0.84673-0.42337 1.5514 0.96727 1.8357 1.2516 0.20864 0.20863 1.9778 0.16688 2.2529 0.16688 1.6564 0 1.0305-0.64039 1.4185-0.83441 0.51305-0.25652 0.76255 0.34535 0.91785 0.50064 0.17834 0.17834 1.4238 0 1.5019 0 0.33685 0 1.1458-0.94026 1.4185-0.66752 0.1947 0.19469 0.22251 0.55627 0.4172 0.75097 0.06669 0.0667 0.47086 0 0.58408 0 0.35291 0 2.7091 0.0444 2.7535 0 0.26493-0.26494 0.64856-0.3148 0.91785-0.58409 0.0751-0.0751 2.2045 0.96628 2.5867 0.58409 0.26943-0.26944 0.48113-0.93737 0.83441-0.58409 0.19352 0.19352 0.50349 0.39034 0.83441 0.50064 0.67138 0.2238 1.8533 0.0834 2.5032 0.0834 0.03436 0 0.22824 0.0221 0.25032 0 0.04985-0.0499 0.1747-0.50065 0.25032-0.50065 0.22251 0 0.51019-0.15734 0.66753 0 0.19314 0.19314 0.62922 0.68668 1.1682 0.4172 0.38653-0.19326 0.3945-0.8344 0.91785-0.8344 0.31849 0 1.4841 0.008 1.4841 0.008l2.226 0.0465s30.98 0.0607 50.192-0.0258c1.107-0.005 1.9215-1.2242 2.5348-2.1458 2.1417-3.2181 2.5393-7.312 3.4944-11.058 0.47109-1.8475 0.40384-3.8377 1.0985-5.6133 0.37217-0.95127 1.4215-3.6126 1.6086-2.6083 1.1659 6.2584 2.1952 15.698 2.1952 15.698s1.662 3.7685 3.376 3.8982c0.60346 0.0456 0.77782-1.2206 1.3815-1.178 0.45438 0.0321 0.44942 1.015 0.90484 1.024 9.4765 0.18769 37.879-3.2557 54.521-7.0291 1.5815-0.3586 4.2549-1.2131 5.9828-3.1255 1.3658-1.5116 1.8904-4.0912 2.5621-4.7753 0.68123-0.69386 4.7823-149.44 5.5781-175.56 0.0481-1.5768 0.67957-3.7345 1.4685-5.5406 0.79111-1.8112 2.6549 169.57 4.3516 181.8 6.0241 0.873 15.279-1.394 24.247-2.4322 8.1239-0.94051 44.105-3.8491 71.773-6.0397 6.0567-0.47953 10.783-4.321 14.405-15.153 3.7072-12.142 10.459-62.402 12.82-64.94 3.234-3.4764 3.5776 9.2682 6.7815 16.485 0.56366 1.2696 2.4077 5.0203 5.8241 9.605 1.787 2.3981 2.0808 5.202 3.5572 8.5227 1.5623 3.5137 2.6877 4.871 4.7811 8.3264 1.6367 2.7017 7.7349 13.85 11.211 19.926 0.5532 1.1638 2.2451 2.4729 3.5628 4.1274 1.9143 2.4035 3.7801 5.2582 6.3873 7.1426 2.425 1.7527 4.8978 2.9372 6.7265 3.6739 0.73464 0.29597 9.6746 3.0681 18.733 3.8537 4.4267 0.3839 14.375 0.59146 25.194-0.26579 15.602-1.2362 17.857-4.1053 25.038-14.337 0.25455-0.3627 5.0983-3.5755 6.6943-17.244 2.122-18.174 3.7946-40.787 5.4562-58.857 1.5778-92.959 3.2611-250.59 8.9569-353.63 0.31025-5.6124 2.9512 63.422 3.2493 57.921 4.3756-80.728 6.2067-156.67 6.6587-174.24 0.0638-2.4815 4.1094 263.96 4.7023 303.04 0.0419 2.7624 5.5267 109.86 6.6965 132.68 0.11366 2.2173 4.2051 32.075 8.4598 63.555 0.19187 1.4197 3.0543 12.858 6.1457 18.403 3.7807 6.7819 7.904 7.728 7.904 7.728s6.3311-0.2001 13.507 1.2576c5.2006-1.0087 14.529-0.79221 20.442-0.80203 2.2523-0.24617 4.9945-3.1933 7.1521-16.238 0.90437-5.4677 1.2934-13.948 2.1628-22.759 0.52822 0.5038 2.9657 3.8956 4.3795 2.3367 1.1486-1.2665 1.1676-7.3326 2.5863-8.5577 1.0448-0.9023 2.2734 1.9458 3.2836 0.49705 1.2238-1.7551 2.0684-4.6972 3.0981-7.1781 1.9872-4.7876 1.0145-17.648 2.8808-20.559 2.4212-3.7762 5.6859 8.6049 6.4964 5.9629 1.0146-3.3077 1.5043-11.608 2.8762-14.329 1.0575-2.0979 3.3107 43.069 7.1848 49.938 2.47 4.3794 6.5893-31.273 8.2655-25.328 0.81752 2.8997 3.2432 42.622 6.7384 44.58 7.0197 3.933 4.5385-10.526 8.7745-13.825 3.6798-2.8652 2.7115 33.467 11.881 30.235 7.1541-1.2126 8.9372-15.932 9.9468-26.685 0.44481-4.7376 3.7178-104.14 4.941-212.79 1.1958-106.21-0.23855-257.52 2.851-264.45 4.0243-9.0308 4.8396 454.58 17.368 493.72 0.67998 2.1244 3.705-3.1893 7.8187-7.0104 7.8464-1.8992 8.7387-5.6424 10.642-4.4014 5.5278 3.6048 1.8497 4.1841 7.2163 13.904 1.8557 3.361 3.3665-26.803 6.8651-22.067 2.554 3.457-0.26971 36.656 6.3299 56.818 7.6652 9.432 14.755 10.956 34.259 10.978 6.7821 0.007 6.3573-13.001 7.6751-11.177 4.1496 5.741 4.1028 9.215 10.466 11.222 0.66936 0.21117 1.5334 1.7256 2.8391 2.0173 0.90996 0.20328 2.5248-0.77212 4.0622-0.94782 1.1834-0.13525 2.8602 2.3057 3.9074 2.9116 2.1793 1.2608 3.1471 1.1745 4.2298 1.3389 1.6479 0.25022 3.4701-6.3914 5.1305-6.1569 2.597 0.36683 3.4955 6.5318 6.1072 6.8958 16.347 2.2784 37.139 4.0463 51.872 3.3068 3.0012-0.15067 2.3919-5.8439 5.1514-5.6527 2.2626 0.15676 2.1889 6.5635 4.2752 6.8542 2.3883 0.33275 4.3615 1.0492 6.5623 1.3192 1.3812 0.16942 2.7238-3.9321 4.0209-3.7918 2.3425 0.25331 4.0363 4.8766 6.0433 5.3079 1.9181 0.41218 7.2413 0.38201 13.91 0.6087 2.9596 0.10061 8.5608-3.4743 10.508-6.3168 1.4876-2.1717 1.1391-9.913 3.3414-9.9371 1.4724-0.0161 4.2054-1.5163 5.6154-0.25838 3.2268 2.8788 1.1496 9.473 2.9875 9.9908 1.5886 0.44754 2.3391-7.0455 4.0551-6.6269 2.485 0.60614 3.8673 13.177 6.6355 13.278 9.6402 0.35011 43.901 0.48771 83.754 0.65579 1.1371 0.005 1.8603 1.4285 3.212 1.2243 1.0846-0.16384 0.8788-0.86403 1.9688-1.016 3.9787-0.55466 6.2521 0.30108 10.3-0.11021 1.539-0.15636 3.021 1.6113 4.5412 1.3092 2.8647-0.56922 2.5369-0.51587 4.2883-1.5198 3.1728-1.8187 4.0118-2.0899 6.2684-4.7327 2.0538 1.3542 4.571 6.283 6.8797 6.1843 3.2571-0.13924 7.2711 0.29952 10.636-0.24051 1.858-0.29821 3.112-1.7068 4.8901-1.7583 1.6769-0.0485 4.9321 1.9532 6.5928 1.9163 0.8654-0.0193 1.8945-1.0392 2.7533-1.0572 0.9081-0.0191 1.6872 1.0894 2.5872 1.0724 1.2742-0.024 2.5401-0.42237 3.7967-0.44418 0.8246-0.0143 1.6451 0.34752 2.4615 0.3345 6.5295-0.10415 12.788-0.18013 18.648-0.23182 0.758-0.007 3.0538-0.90262 3.7975-0.93669 2.9795-0.13651 3.1746 1.4003 4.5472 1.3976 13.175-0.0263 30.644 0.0169 43.515-0.21679 1.2439-0.0226 2.6929-1.1224 3.8378-1.1282 0.9146-0.005 2.4597 1.177 3.2971 1.2041 2.2071 0.0716 4.0388 0.0699 5.5102 0.0416 0.4147-0.008 1.4325-2.8448 2.4233-5.0157 0.589-1.2903 0.9257-2.3994 1.7864-2.3912 0.998 0.009 1.6694 5.6533 3.1694 6.3336 1.1526 0.52277 2.8572 1.0031 4.1829 1.1048 0.914 0.0701 4.3619 0.11361 9.4186 0.13646 0.9969 0.005 2.1845-1.5724 3.2963-1.4908 2.3169 0.17002 2.8201 1.1357 4.1294 1.1444 3.0457 0.0203 6.3774 0.038 9.8888 0.0532 1.0826 0.005 2.3492-1.1174 3.4629-1.1132 2.161 0.008 4.5252 0.408 6.8016 0.1123 0.795-0.10328 1.5061-1.1706 2.2947-1.1602 0.6238 0.008 4.5449 2.1038 5.1711 2.1149 20.15 0.35713 38.755 0.1865 45.453 0.0626" stroke="#3300f3" stroke-miterlimit="5.8" stroke-width="3.1" fill="none"/>
  <g transform="matrix(-.52658 .26677 -.45323 -.89466 535.62 1059.7)">
   <rect height="36.463" width="2.4781" y="549.96" x="279.9"/>
   <path d="m281.34 545.92 6.4291 6.5867c-13.093 0.0927-0.17056 0.007-13.249 0.0701z"/>
  </g>
  <g transform="matrix(-.55592 .19852 -.33728 -.94450 556.95 923.37)">
   <rect height="36.463" width="2.4781" y="549.96" x="279.9"/>
   <path d="m281.34 545.92 6.4291 6.5867c-13.093 0.0927-0.17056 0.007-13.249 0.0701z"/>
  </g>
  <g transform="matrix(-.59025 -.0074157 .012599 -1.0028 511.93 1112.4)">
   <rect height="36.463" width="2.4781" y="549.96" x="279.9"/>
   <path d="m281.34 545.92 6.4291 6.5867c-13.093 0.0927-0.17056 0.007-13.249 0.0701z"/>
  </g>
  <g transform="matrix(-.42989 .40453 -.68730 -.73038 977.62 487.43)">
   <rect height="36.463" width="2.4781" y="549.96" x="279.9"/>
   <path d="m281.34 545.92 6.4291 6.5867c-13.093 0.0927-0.17056 0.007-13.249 0.0701z"/>
  </g>
  <g transform="matrix(-.28289 -.51810 .88024 -.48063 109.99 498.68)">
   <rect height="36.463" width="2.4781" y="549.96" x="279.9"/>
   <path d="m281.34 545.92 6.4291 6.5867c-13.093 0.0927-0.17056 0.007-13.249 0.0701z"/>
  </g>
  <g transform="matrix(-.42224 .41252 -.70086 -.71738 1074.4 855.07)">
   <rect height="36.463" width="2.4781" y="549.96" x="279.9"/>
   <path d="m281.34 545.92 6.4291 6.5867c-13.093 0.0927-0.17056 0.007-13.249 0.0701z"/>
  </g>
  <g transform="matrix(-.56839 .15932 -.27068 -.96570 888.47 1050.2)">
   <rect height="36.463" width="2.4781" y="549.96" x="279.9"/>
   <path d="m281.34 545.92 6.4291 6.5867c-13.093 0.0927-0.17056 0.007-13.249 0.0701z"/>
  </g>
  <g transform="matrix(-.58473 .080923 -.13749 -.99344 831.15 1057.7)">
   <rect height="36.463" width="2.4781" y="549.96" x="279.9"/>
   <path d="m281.34 545.92 6.4291 6.5867c-13.093 0.0927-0.17056 0.007-13.249 0.0701z"/>
  </g>
  <g transform="matrix(-.58775 -.054759 .093036 -.99859 719.49 1091.5)">
   <rect height="36.463" width="2.4781" y="549.96" x="279.9"/>
   <path d="m281.34 545.92 6.4291 6.5867c-13.093 0.0927-0.17056 0.007-13.249 0.0701z"/>
  </g>
  <g transform="matrix(-.58024 -.10850 .18434 -.98583 681.43 1125.7)">
   <rect height="36.463" width="2.4781" y="549.96" x="279.9"/>
   <path d="m281.34 545.92 6.4291 6.5867c-13.093 0.0927-0.17056 0.007-13.249 0.0701z"/>
  </g>
  <g transform="matrix(-.58543 -.075648 .12853 -.99464 732.24 1154.4)">
   <rect height="36.463" width="2.4781" y="549.96" x="279.9"/>
   <path d="m281.34 545.92 6.4291 6.5867c-13.093 0.0927-0.17056 0.007-13.249 0.0701z"/>
  </g>
  <g transform="matrix(-.43261 -.40162 .68235 -.73501 417.65 630.61)">
   <rect height="36.463" width="2.4781" y="549.96" x="279.9"/>
   <path d="m281.34 545.92 6.4291 6.5867c-13.093 0.0927-0.17056 0.007-13.249 0.0701z"/>
  </g>
  <g transform="matrix(-.59025 -.0074157 .012599 -1.0028 857.23 1148.4)">
   <rect height="36.463" width="2.4781" y="549.96" x="279.9"/>
   <path d="m281.34 545.92 6.4291 6.5867c-13.093 0.0927-0.17056 0.007-13.249 0.0701z"/>
  </g>
  <g transform="matrix(-.44217 -.39107 .66442 -.75125 478.76 1110.9)">
   <rect height="36.463" width="2.4781" y="549.96" x="279.9"/>
   <path d="m281.34 545.92 6.4291 6.5867c-13.093 0.0927-0.17056 0.007-13.249 0.0701z"/>
  </g>
  <g transform="matrix(-.59025 -.0074157 .012599 -1.0028 919.73 1198.4)">
   <rect height="36.463" width="2.4781" y="549.96" x="279.9"/>
   <path d="m281.34 545.92 6.4291 6.5867c-13.093 0.0927-0.17056 0.007-13.249 0.0701z"/>
  </g>
  <g transform="matrix(-.59025 -.0074157 .012599 -1.0028 950.73 1208.1)">
   <rect height="36.463" width="2.4781" y="549.96" x="279.9"/>
   <path d="m281.34 545.92 6.4291 6.5867c-13.093 0.0927-0.17056 0.007-13.249 0.0701z"/>
  </g>
  <g transform="matrix(-.54342 .23054 -.39168 -.92327 1216.7 1104.4)">
   <rect height="36.463" width="2.4781" y="549.96" x="279.9"/>
   <path d="m281.34 545.92 6.4291 6.5867c-13.093 0.0927-0.17056 0.007-13.249 0.0701z"/>
  </g>
  <g transform="matrix(-.59025 -.0074157 .012599 -1.0028 1029.5 1214.9)">
   <rect height="36.463" width="2.4781" y="549.96" x="279.9"/>
   <path d="m281.34 545.92 6.4291 6.5867c-13.093 0.0927-0.17056 0.007-13.249 0.0701z"/>
  </g>
  <g transform="matrix(-.59025 -.0074157 .012599 -1.0028 1065 1205.4)">
   <rect height="36.463" width="2.4781" y="549.96" x="279.9"/>
   <path d="m281.34 545.92 6.4291 6.5867c-13.093 0.0927-0.17056 0.007-13.249 0.0701z"/>
  </g>
  <g transform="matrix(-.47034 -.35669 .60602 -.79911 722.26 1197.8)">
   <rect height="36.463" width="2.4781" y="549.96" x="279.9"/>
   <path d="m281.34 545.92 6.4291 6.5867c-13.093 0.0927-0.17056 0.007-13.249 0.0701z"/>
  </g>
  <g transform="matrix(-.48990 -.32932 .55951 -.83234 875.09 1211.9)">
   <rect height="36.463" width="2.4781" y="549.96" x="279.9"/>
   <path d="m281.34 545.92 6.4291 6.5867c-13.093 0.0927-0.17056 0.007-13.249 0.0701z"/>
  </g>
  <g transform="matrix(-.54252 -.23265 .39527 -.92174 1105.4 1233.3)">
   <rect height="36.463" width="2.4781" y="549.96" x="279.9"/>
   <path d="m281.34 545.92 6.4291 6.5867c-13.093 0.0927-0.17056 0.007-13.249 0.0701z"/>
  </g>
 </g>
</svg>
